<?xml version="1.0" encoding="UTF-8" standalone="no"?>
<!DOCTYPE svg PUBLIC "-//W3C//DTD SVG 1.1//EN"
 "http://www.w3.org/Graphics/SVG/1.1/DTD/svg11.dtd">
<!-- Generated by graphviz version 2.38.0 (20140413.2041)
 -->
<!-- Title: G Pages: 1 -->
<svg width="244pt" height="232pt"
 viewBox="0.00 0.00 244.41 232.00" xmlns="http://www.w3.org/2000/svg" xmlns:xlink="http://www.w3.org/1999/xlink">
<g id="graph0" class="graph" transform="scale(1 1) rotate(0) translate(4 228)">
<title>G</title>
<polygon fill="white" stroke="none" points="-4,4 -4,-228 240.412,-228 240.412,4 -4,4"/>
<!-- A0 -->
<g id="node1" class="node"><title>A0</title>
<polygon fill="none" stroke="black" points="80.9584,-224 27.3916,-224 27.3916,-228 15.3916,-228 15.3916,-188 80.9584,-188 80.9584,-224"/>
<polyline fill="none" stroke="black" points="15.3916,-224 27.3916,-224 "/>
<text text-anchor="middle" x="48.175" y="-203" font-family="Helvetica,sans-Serif" font-size="10.00">UI Layer</text>
</g>
<!-- A1 -->
<g id="node2" class="node"><title>A1</title>
<polygon fill="none" stroke="black" points="96.5256,-130 11.8244,-130 11.8244,-134 -0.175638,-134 -0.175638,-94 96.5256,-94 96.5256,-130"/>
<polyline fill="none" stroke="black" points="-0.175638,-130 11.8244,-130 "/>
<text text-anchor="middle" x="48.175" y="-109" font-family="Helvetica,sans-Serif" font-size="10.00">Business Layer</text>
</g>
<!-- A0&#45;&gt;A1 -->
<g id="edge1" class="edge"><title>A0&#45;&gt;A1</title>
<path fill="none" stroke="black" stroke-dasharray="5,2" d="M48.175,-187.696C48.175,-174.46 48.175,-155.947 48.175,-140.663"/>
<polygon fill="black" stroke="black" points="48.175,-130.227 52.6751,-140.227 48.175,-135.227 48.1751,-140.227 48.1751,-140.227 48.1751,-140.227 48.175,-135.227 43.6751,-140.227 48.175,-130.227 48.175,-130.227"/>
</g>
<!-- A2 -->
<g id="node3" class="node"><title>A2</title>
<polygon fill="none" stroke="black" points="86.5761,-36 21.7739,-36 21.7739,-40 9.77394,-40 9.77394,-0 86.5761,-0 86.5761,-36"/>
<polyline fill="none" stroke="black" points="9.77394,-36 21.7739,-36 "/>
<text text-anchor="middle" x="48.175" y="-15" font-family="Helvetica,sans-Serif" font-size="10.00">Data Layer</text>
</g>
<!-- A1&#45;&gt;A2 -->
<g id="edge2" class="edge"><title>A1&#45;&gt;A2</title>
<path fill="none" stroke="black" stroke-dasharray="5,2" d="M48.175,-93.6955C48.175,-80.4599 48.175,-61.9471 48.175,-46.6634"/>
<polygon fill="black" stroke="black" points="48.175,-36.2269 52.6751,-46.2269 48.175,-41.2269 48.1751,-46.2269 48.1751,-46.2269 48.1751,-46.2269 48.175,-41.2269 43.6751,-46.2269 48.175,-36.2269 48.175,-36.2269"/>
</g>
<!-- A3 -->
<g id="node4" class="node"><title>A3</title>
<polygon fill="none" stroke="black" points="223.515,-224 138.835,-224 138.835,-228 126.835,-228 126.835,-188 223.515,-188 223.515,-224"/>
<polyline fill="none" stroke="black" points="126.835,-224 138.835,-224 "/>
<text text-anchor="middle" x="175.175" y="-203" font-family="Helvetica,sans-Serif" font-size="10.00">Common Layer</text>
</g>
<!-- A4 -->
<g id="node5" class="node"><title>A4</title>
<polygon fill="none" stroke="black" points="236.65,-152 125.7,-152 125.7,-156 113.7,-156 113.7,-72 236.65,-72 236.65,-152"/>
<polyline fill="none" stroke="black" points="113.7,-152 125.7,-152 "/>
<text text-anchor="middle" x="175.175" y="-139" font-family="Helvetica,sans-Serif" font-size="10.00">Note: The Common</text>
<text text-anchor="middle" x="175.175" y="-127" font-family="Helvetica,sans-Serif" font-size="10.00">Layer is used from</text>
<text text-anchor="middle" x="175.175" y="-115" font-family="Helvetica,sans-Serif" font-size="10.00">every other Package.</text>
<text text-anchor="middle" x="175.175" y="-103" font-family="Helvetica,sans-Serif" font-size="10.00">It conatains all the</text>
<text text-anchor="middle" x="175.175" y="-91" font-family="Helvetica,sans-Serif" font-size="10.00">globaly used</text>
<text text-anchor="middle" x="175.175" y="-79" font-family="Helvetica,sans-Serif" font-size="10.00">classes.</text>
</g>
<!-- A3&#45;&gt;A4 -->
<g id="edge3" class="edge"><title>A3&#45;&gt;A4</title>
<path fill="none" stroke="black" stroke-dasharray="5,2" d="M175.175,-187.696C175.175,-177.702 175.175,-164.699 175.175,-152.35"/>
</g>
</g>
</svg>
