<?xml version="1.0" encoding="UTF-8" standalone="no"?>
<!DOCTYPE svg PUBLIC "-//W3C//DTD SVG 1.1//EN"
 "http://www.w3.org/Graphics/SVG/1.1/DTD/svg11.dtd">
<!-- Generated by graphviz version 2.38.0 (20140413.2041)
 -->
<!-- Title: G Pages: 1 -->
<svg width="507pt" height="390pt"
 viewBox="0.00 0.00 506.52 390.00" xmlns="http://www.w3.org/2000/svg" xmlns:xlink="http://www.w3.org/1999/xlink">
<g id="graph0" class="graph" transform="scale(1 1) rotate(0) translate(4 386)">
<title>G</title>
<polygon fill="white" stroke="none" points="-4,4 -4,-386 502.524,-386 502.524,4 -4,4"/>
<!-- A0 -->
<g id="node1" class="node"><title>A0</title>
<polygon fill="none" stroke="black" points="-1.42109e-14,-285.5 -1.42109e-14,-381.5 88.03,-381.5 88.03,-285.5 -1.42109e-14,-285.5"/>
<text text-anchor="middle" x="44.015" y="-368.5" font-family="Helvetica,sans-Serif" font-size="10.00">&lt;&lt;Abstract&gt;&gt;</text>
<text text-anchor="middle" x="44.015" y="-356.5" font-family="Helvetica,sans-Serif" font-size="10.00">User</text>
<polyline fill="none" stroke="black" points="-1.42109e-14,-349.5 88.03,-349.5 "/>
<text text-anchor="middle" x="44.015" y="-336.5" font-family="Helvetica,sans-Serif" font-size="10.00">Forename</text>
<text text-anchor="middle" x="44.015" y="-324.5" font-family="Helvetica,sans-Serif" font-size="10.00">Surname</text>
<text text-anchor="middle" x="44.015" y="-312.5" font-family="Helvetica,sans-Serif" font-size="10.00">EMail</text>
<polyline fill="none" stroke="black" points="-1.42109e-14,-305.5 88.03,-305.5 "/>
<text text-anchor="middle" x="44.015" y="-292.5" font-family="Helvetica,sans-Serif" font-size="10.00">Save()</text>
</g>
<!-- A1 -->
<g id="node2" class="node"><title>A1</title>
<polygon fill="none" stroke="black" points="106.015,-315.5 106.015,-351.5 160.015,-351.5 160.015,-315.5 106.015,-315.5"/>
<text text-anchor="middle" x="132.793" y="-330.5" font-family="Helvetica,sans-Serif" font-size="10.00">Artzt</text>
</g>
<!-- A2 -->
<g id="node3" class="node"><title>A2</title>
<polygon fill="none" stroke="black" points="103.453,-198.5 103.453,-234.5 162.576,-234.5 162.576,-198.5 103.453,-198.5"/>
<text text-anchor="middle" x="133.015" y="-213.5" font-family="Helvetica,sans-Serif" font-size="10.00">Patient</text>
</g>
<!-- A1&#45;&gt;A2 -->
<g id="edge1" class="edge"><title>A1&#45;&gt;A2</title>
<path fill="none" stroke="black" d="M133.015,-315.034C133.015,-296.436 133.015,-266.744 133.015,-245.001"/>
<polygon fill="black" stroke="black" points="133.015,-234.754 137.515,-244.754 133.015,-239.754 133.015,-244.754 133.015,-244.754 133.015,-244.754 133.015,-239.754 128.515,-244.754 133.015,-234.754 133.015,-234.754"/>
<text text-anchor="middle" x="141.467" y="-249.88" font-family="Helvetica,sans-Serif" font-size="10.00">*</text>
<text text-anchor="middle" x="124.563" y="-293.908" font-family="Helvetica,sans-Serif" font-size="10.00">1</text>
</g>
<!-- A3 -->
<g id="node4" class="node"><title>A3</title>
<polygon fill="none" stroke="black" points="284.015,-198.5 284.015,-234.5 338.015,-234.5 338.015,-198.5 284.015,-198.5"/>
<text text-anchor="middle" x="310.792" y="-213.5" font-family="Helvetica,sans-Serif" font-size="10.00">Order</text>
</g>
<!-- A4 -->
<g id="node5" class="node"><title>A4</title>
<polygon fill="none" stroke="black" points="277.844,-99.5 277.844,-135.5 344.186,-135.5 344.186,-99.5 277.844,-99.5"/>
<text text-anchor="middle" x="311.015" y="-114.5" font-family="Helvetica,sans-Serif" font-size="10.00">LineItem</text>
</g>
<!-- A3&#45;&gt;A4 -->
<g id="edge2" class="edge"><title>A3&#45;&gt;A4</title>
<path fill="none" stroke="black" d="M304.742,-185.89C304.067,-173.175 304.108,-158.408 304.866,-145.943"/>
<polygon fill="black" stroke="black" points="304.766,-186.195 309.22,-191.865 305.699,-198.158 301.245,-192.488 304.766,-186.195"/>
<polygon fill="black" stroke="black" points="305.716,-135.692 309.374,-146.029 305.302,-140.674 304.889,-145.657 304.889,-145.657 304.889,-145.657 305.302,-140.674 300.405,-145.285 305.716,-135.692 305.716,-135.692"/>
<text text-anchor="middle" x="312.641" y="-151.454" font-family="Helvetica,sans-Serif" font-size="10.00">*</text>
<text text-anchor="middle" x="295.863" y="-177.744" font-family="Helvetica,sans-Serif" font-size="10.00">*</text>
</g>
<!-- A3&#45;&gt;A4 -->
<g id="edge9" class="edge"><title>A3&#45;&gt;A4</title>
<path fill="none" stroke="black" d="M317.288,-185.89C317.963,-173.175 317.922,-158.408 317.164,-145.943"/>
<polygon fill="black" stroke="black" points="317.264,-186.195 320.785,-192.488 316.331,-198.158 312.81,-191.865 317.264,-186.195"/>
<polygon fill="black" stroke="black" points="316.314,-135.692 321.625,-145.285 316.728,-140.674 317.141,-145.657 317.141,-145.657 317.141,-145.657 316.728,-140.674 312.656,-146.029 316.314,-135.692 316.314,-135.692"/>
<text text-anchor="middle" x="326.236" y="-150.057" font-family="Helvetica,sans-Serif" font-size="10.00">*</text>
<text text-anchor="middle" x="309.313" y="-176.43" font-family="Helvetica,sans-Serif" font-size="10.00">*</text>
</g>
<!-- A5 -->
<g id="node6" class="node"><title>A5</title>
<polygon fill="none" stroke="black" points="362.291,-99.5 362.291,-135.5 459.739,-135.5 459.739,-99.5 362.291,-99.5"/>
<text text-anchor="middle" x="411.015" y="-114.5" font-family="Helvetica,sans-Serif" font-size="10.00">DeliveryMethod</text>
</g>
<!-- A3&#45;&gt;A5 -->
<g id="edge3" class="edge"><title>A3&#45;&gt;A5</title>
<path fill="none" stroke="black" d="M323.577,-198.158C337.89,-182.64 361.296,-159.743 380.384,-142.474"/>
<polygon fill="black" stroke="black" points="387.992,-135.692 383.522,-145.705 384.26,-139.019 380.528,-142.346 380.528,-142.346 380.528,-142.346 384.26,-139.019 377.533,-138.987 387.992,-135.692 387.992,-135.692"/>
<text text-anchor="middle" x="380.087" y="-151.063" font-family="Helvetica,sans-Serif" font-size="10.00">1</text>
</g>
<!-- A3&#45;&gt;A5 -->
<g id="edge10" class="edge"><title>A3&#45;&gt;A5</title>
<path fill="none" stroke="black" d="M333.954,-198.382C351.39,-183.1 374.881,-160.535 391.441,-143.282"/>
<polygon fill="black" stroke="black" points="398.516,-135.774 394.933,-146.138 395.087,-139.413 391.658,-143.052 391.658,-143.052 391.658,-143.052 395.087,-139.413 388.383,-139.966 398.516,-135.774 398.516,-135.774"/>
<text text-anchor="middle" x="392.237" y="-151.762" font-family="Helvetica,sans-Serif" font-size="10.00">1</text>
</g>
<!-- A6 -->
<g id="node7" class="node"><title>A6</title>
<polygon fill="none" stroke="black" points="169.906,-87.5 169.906,-147.5 260.124,-147.5 260.124,-87.5 169.906,-87.5"/>
<text text-anchor="middle" x="215.015" y="-134.5" font-family="Helvetica,sans-Serif" font-size="10.00">Product</text>
<polyline fill="none" stroke="black" points="169.906,-127.5 260.124,-127.5 "/>
<text text-anchor="middle" x="215.015" y="-114.5" font-family="Helvetica,sans-Serif" font-size="10.00">EAN_Code</text>
<polyline fill="none" stroke="black" points="169.906,-107.5 260.124,-107.5 "/>
<text text-anchor="middle" x="215.015" y="-94.5" font-family="Helvetica,sans-Serif" font-size="10.00">promo_price()</text>
</g>
<!-- A3&#45;&gt;A6 -->
<g id="edge4" class="edge"><title>A3&#45;&gt;A6</title>
<path fill="none" stroke="black" d="M288.536,-198.158C275.489,-186.279 259.032,-170.074 244.941,-155.381"/>
<polygon fill="black" stroke="black" points="237.819,-147.866 247.964,-152.029 241.259,-151.496 244.698,-155.125 244.698,-155.125 244.698,-155.125 241.259,-151.496 241.432,-158.22 237.819,-147.866 237.819,-147.866"/>
<text text-anchor="middle" x="256.423" y="-152.208" font-family="Helvetica,sans-Serif" font-size="10.00">*</text>
<text text-anchor="middle" x="269.472" y="-189.112" font-family="Helvetica,sans-Serif" font-size="10.00">*</text>
</g>
<!-- A3&#45;&gt;A6 -->
<g id="edge11" class="edge"><title>A3&#45;&gt;A6</title>
<path fill="none" stroke="black" d="M299.168,-198.158C288.605,-186.17 272.796,-169.776 257.678,-154.977"/>
<polygon fill="black" stroke="black" points="250.338,-147.866 260.652,-151.592 253.929,-151.345 257.521,-154.824 257.521,-154.824 257.521,-154.824 253.929,-151.345 254.39,-158.057 250.338,-147.866 250.338,-147.866"/>
<text text-anchor="middle" x="269.238" y="-151.408" font-family="Helvetica,sans-Serif" font-size="10.00">*</text>
<text text-anchor="middle" x="280.795" y="-187.257" font-family="Helvetica,sans-Serif" font-size="10.00">*</text>
</g>
<!-- A8 -->
<g id="node9" class="node"><title>A8</title>
<polygon fill="none" stroke="black" points="332.679,-0.5 332.679,-36.5 397.351,-36.5 397.351,-0.5 332.679,-0.5"/>
<text text-anchor="middle" x="365.015" y="-15.5" font-family="Helvetica,sans-Serif" font-size="10.00">National</text>
</g>
<!-- A5&#45;&gt;A8 -->
<g id="edge6" class="edge"><title>A5&#45;&gt;A8</title>
<path fill="none" stroke="black" d="M392.495,-90.2555C383.312,-73.2341 373.284,-51.5428 367.868,-36.6915"/>
<polygon fill="none" stroke="black" points="389.539,-92.1396 397.475,-99.1583 395.648,-88.7223 389.539,-92.1396"/>
</g>
<!-- A5&#45;&gt;A8 -->
<g id="edge13" class="edge"><title>A5&#45;&gt;A8</title>
<path fill="none" stroke="black" d="M404.449,-89.7815C397.487,-72.833 387.057,-51.4053 378.467,-36.6915"/>
<polygon fill="none" stroke="black" points="401.212,-91.1143 408.107,-99.1583 407.733,-88.5701 401.212,-91.1143"/>
</g>
<!-- A9 -->
<g id="node10" class="node"><title>A9</title>
<polygon fill="none" stroke="black" points="415.506,-0.5 415.506,-36.5 498.524,-36.5 498.524,-0.5 415.506,-0.5"/>
<text text-anchor="middle" x="457.015" y="-15.5" font-family="Helvetica,sans-Serif" font-size="10.00">International</text>
</g>
<!-- A5&#45;&gt;A9 -->
<g id="edge7" class="edge"><title>A5&#45;&gt;A9</title>
<path fill="none" stroke="black" d="M417.581,-89.7815C424.543,-72.833 434.973,-51.4053 443.563,-36.6915"/>
<polygon fill="none" stroke="black" points="414.297,-88.5701 413.923,-99.1583 420.818,-91.1143 414.297,-88.5701"/>
</g>
<!-- A5&#45;&gt;A9 -->
<g id="edge14" class="edge"><title>A5&#45;&gt;A9</title>
<path fill="none" stroke="black" d="M429.535,-90.2555C438.718,-73.2341 448.746,-51.5428 454.162,-36.6915"/>
<polygon fill="none" stroke="black" points="426.382,-88.7223 424.555,-99.1583 432.491,-92.1396 426.382,-88.7223"/>
</g>
<!-- A7 -->
<g id="node8" class="node"><title>A7</title>
<polygon fill="none" stroke="black" points="180.733,-198.5 180.733,-234.5 249.296,-234.5 249.296,-198.5 180.733,-198.5"/>
<text text-anchor="middle" x="215.015" y="-213.5" font-family="Helvetica,sans-Serif" font-size="10.00">Category</text>
</g>
<!-- A7&#45;&gt;A6 -->
<g id="edge5" class="edge"><title>A7&#45;&gt;A6</title>
<path fill="none" stroke="black" d="M208.854,-187.868C208.297,-178.587 208.135,-168.047 208.369,-158.034"/>
<polygon fill="black" stroke="black" points="209.699,-198.158 204.396,-188.56 209.29,-193.175 208.881,-188.192 208.881,-188.192 208.881,-188.192 209.29,-193.175 213.366,-187.824 209.699,-198.158 209.699,-198.158"/>
<polygon fill="black" stroke="black" points="208.755,-147.866 212.872,-158.03 208.565,-152.863 208.375,-157.859 208.375,-157.859 208.375,-157.859 208.565,-152.863 203.878,-157.688 208.755,-147.866 208.755,-147.866"/>
</g>
<!-- A7&#45;&gt;A6 -->
<g id="edge12" class="edge"><title>A7&#45;&gt;A6</title>
<path fill="none" stroke="black" d="M221.176,-187.868C221.733,-178.587 221.895,-168.047 221.661,-158.034"/>
<polygon fill="black" stroke="black" points="220.331,-198.158 216.664,-187.824 220.74,-193.175 221.149,-188.192 221.149,-188.192 221.149,-188.192 220.74,-193.175 225.634,-188.56 220.331,-198.158 220.331,-198.158"/>
<polygon fill="black" stroke="black" points="221.275,-147.866 226.152,-157.688 221.465,-152.863 221.655,-157.859 221.655,-157.859 221.655,-157.859 221.465,-152.863 217.158,-158.03 221.275,-147.866 221.275,-147.866"/>
</g>
<!-- A10 -->
<g id="node11" class="node"><title>A10</title>
<polygon fill="cornsilk" stroke="black" points="473.211,-351.5 364.819,-351.5 364.819,-315.5 479.211,-315.5 479.211,-345.5 473.211,-351.5"/>
<polyline fill="none" stroke="black" points="473.211,-351.5 473.211,-345.5 "/>
<polyline fill="none" stroke="black" points="479.211,-345.5 473.211,-345.5 "/>
<text text-anchor="middle" x="422.015" y="-336.5" font-family="Helvetica,sans-Serif" font-size="10.00">You can stick notes</text>
<text text-anchor="middle" x="422.015" y="-324.5" font-family="Helvetica,sans-Serif" font-size="10.00">on diagrams too!</text>
</g>
<!-- A11 -->
<g id="node12" class="node"><title>A11</title>
<polygon fill="none" stroke="black" points="275.349,-315.5 275.349,-351.5 346.681,-351.5 346.681,-315.5 275.349,-315.5"/>
<text text-anchor="middle" x="311.015" y="-330.5" font-family="Helvetica,sans-Serif" font-size="10.00">Customer</text>
</g>
<!-- A11&#45;&gt;A3 -->
<g id="edge8" class="edge"><title>A11&#45;&gt;A3</title>
<path fill="none" stroke="black" d="M311.015,-302.94C311.015,-285.043 311.015,-262.375 311.015,-244.885"/>
<polygon fill="none" stroke="black" points="311.015,-303.034 315.015,-309.034 311.015,-315.034 307.015,-309.034 311.015,-303.034"/>
<polygon fill="black" stroke="black" points="311.015,-234.754 315.515,-244.754 311.015,-239.754 311.015,-244.754 311.015,-244.754 311.015,-244.754 311.015,-239.754 306.515,-244.754 311.015,-234.754 311.015,-234.754"/>
<text text-anchor="middle" x="319.467" y="-249.88" font-family="Helvetica,sans-Serif" font-size="10.00">orders 0..*</text>
<text text-anchor="middle" x="302.563" y="-293.908" font-family="Helvetica,sans-Serif" font-size="10.00">1</text>
</g>
</g>
</svg>
