<?xml version="1.0" encoding="UTF-8" standalone="no"?>
<!DOCTYPE svg PUBLIC "-//W3C//DTD SVG 1.1//EN"
 "http://www.w3.org/Graphics/SVG/1.1/DTD/svg11.dtd">
<!-- Generated by graphviz version 2.38.0 (20140413.2041)
 -->
<!-- Title: G Pages: 1 -->
<svg width="968pt" height="133pt"
 viewBox="0.00 0.00 968.36 133.00" xmlns="http://www.w3.org/2000/svg" xmlns:xlink="http://www.w3.org/1999/xlink">
<g id="graph0" class="graph" transform="scale(1 1) rotate(0) translate(4 129)">
<title>G</title>
<polygon fill="white" stroke="none" points="-4,4 -4,-129 964.364,-129 964.364,4 -4,4"/>
<!-- A0 -->
<g id="node1" class="node"><title>A0</title>
<polygon fill="none" stroke="black" points="2.84217e-14,-27.5 2.84217e-14,-63.5 59.123,-63.5 59.123,-27.5 2.84217e-14,-27.5"/>
<text text-anchor="middle" x="29.5615" y="-42.5" font-family="Helvetica,sans-Serif" font-size="10.00">Patient</text>
</g>
<!-- A1 -->
<g id="node2" class="node"><title>A1</title>
<polygon fill="none" stroke="black" points="109.123,-13.5 109.123,-77.5 231.875,-77.5 231.875,-13.5 109.123,-13.5"/>
<text text-anchor="middle" x="170.499" y="-64.5" font-family="Helvetica,sans-Serif" font-size="10.00">LevelLibrary</text>
<polyline fill="none" stroke="black" points="109.123,-57.5 231.875,-57.5 "/>
<text text-anchor="middle" x="170.499" y="-44.5" font-family="Helvetica,sans-Serif" font-size="10.00">+addChallenge(Level</text>
<text text-anchor="middle" x="170.499" y="-32.5" font-family="Helvetica,sans-Serif" font-size="10.00">destLevel, Challenge</text>
<text text-anchor="middle" x="170.499" y="-20.5" font-family="Helvetica,sans-Serif" font-size="10.00">newChallenge): void</text>
</g>
<!-- A0&#45;&gt;A1 -->
<g id="edge1" class="edge"><title>A0&#45;&gt;A1</title>
<path fill="none" stroke="black" d="M71.4931,-45.5C80.1165,-45.5 89.45,-45.5 98.8129,-45.5"/>
<polygon fill="black" stroke="black" points="71.3494,-45.5001 65.3494,-49.5 59.3494,-45.5 65.3495,-41.5 71.3494,-45.5001"/>
<polygon fill="black" stroke="black" points="108.952,-45.5 98.9522,-50.0001 103.952,-45.5 98.9521,-45.5001 98.9521,-45.5001 98.9521,-45.5001 103.952,-45.5 98.9521,-41.0001 108.952,-45.5 108.952,-45.5"/>
<text text-anchor="middle" x="90.826" y="-50.9524" font-family="Helvetica,sans-Serif" font-size="10.00">1</text>
<text text-anchor="middle" x="77.4756" y="-34.0476" font-family="Helvetica,sans-Serif" font-size="10.00">1</text>
</g>
<!-- A2 -->
<g id="node3" class="node"><title>A2</title>
<polygon fill="none" stroke="black" points="281.875,-25.5 281.875,-65.5 519.093,-65.5 519.093,-25.5 281.875,-25.5"/>
<text text-anchor="middle" x="400.484" y="-52.5" font-family="Helvetica,sans-Serif" font-size="10.00">Level</text>
<polyline fill="none" stroke="black" points="281.875,-45.5 519.093,-45.5 "/>
<text text-anchor="middle" x="400.484" y="-32.5" font-family="Helvetica,sans-Serif" font-size="10.00">+addChallenge(Challenge newChallenge): void</text>
</g>
<!-- A1&#45;&gt;A2 -->
<g id="edge2" class="edge"><title>A1&#45;&gt;A2</title>
<path fill="none" stroke="black" d="M231.996,-45.5C244.416,-45.5 257.932,-45.5 271.72,-45.5"/>
<polygon fill="black" stroke="black" points="281.796,-45.5 271.796,-50.0001 276.796,-45.5 271.796,-45.5001 271.796,-45.5001 271.796,-45.5001 276.796,-45.5 271.796,-41.0001 281.796,-45.5 281.796,-45.5"/>
<text text-anchor="middle" x="263.67" y="-50.9524" font-family="Helvetica,sans-Serif" font-size="10.00">*</text>
<text text-anchor="middle" x="250.122" y="-34.0476" font-family="Helvetica,sans-Serif" font-size="10.00">1</text>
</g>
<!-- A3 -->
<g id="node4" class="node"><title>A3</title>
<polygon fill="none" stroke="black" points="569.093,-51.5 569.093,-87.5 642.104,-87.5 642.104,-51.5 569.093,-51.5"/>
<text text-anchor="middle" x="605.598" y="-66.5" font-family="Helvetica,sans-Serif" font-size="10.00">Challenge</text>
</g>
<!-- A2&#45;&gt;A3 -->
<g id="edge3" class="edge"><title>A2&#45;&gt;A3</title>
<path fill="none" stroke="black" d="M519.343,-59.4262C533.284,-61.0735 546.805,-62.6711 558.816,-64.0904"/>
<polygon fill="black" stroke="black" points="568.956,-65.2885 558.497,-68.5839 563.991,-64.7017 559.025,-64.115 559.025,-64.115 559.025,-64.115 563.991,-64.7017 559.553,-59.6461 568.956,-65.2885 568.956,-65.2885"/>
<text text-anchor="middle" x="549.963" y="-68.5555" font-family="Helvetica,sans-Serif" font-size="10.00">*</text>
<text text-anchor="middle" x="538.335" y="-50.1592" font-family="Helvetica,sans-Serif" font-size="10.00">1</text>
</g>
<!-- A2JA4 -->
<!-- A2&#45;&gt;A2JA4 -->
<g id="edge4" class="edge"><title>A2&#45;&gt;A2JA4</title>
<path fill="none" stroke="black" stroke-dasharray="5,2" d="M519.235,-37.8413C620.496,-31.2552 750.956,-22.7699 755.008,-22.5063"/>
<text text-anchor="middle" x="536.774" y="-25.2303" font-family="Helvetica,sans-Serif" font-size="10.00">implements</text>
</g>
<!-- A3JA6 -->
<!-- A3&#45;&gt;A3JA6 -->
<g id="edge7" class="edge"><title>A3&#45;&gt;A3JA6</title>
<path fill="none" stroke="black" stroke-dasharray="5,2" d="M642.17,-69.5C685.417,-69.5 752.955,-69.5 755.055,-69.5"/>
<text text-anchor="middle" x="660.296" y="-58.0476" font-family="Helvetica,sans-Serif" font-size="10.00">implements</text>
</g>
<!-- A4 -->
<g id="node5" class="node"><title>A4</title>
<polygon fill="none" stroke="black" points="870.106,-0.5 870.106,-36.5 960.364,-36.5 960.364,-0.5 870.106,-0.5"/>
<text text-anchor="middle" x="915.235" y="-21.5" font-family="Helvetica,sans-Serif" font-size="10.00">&lt;&lt;Interface&gt;&gt;</text>
<text text-anchor="middle" x="915.235" y="-9.5" font-family="Helvetica,sans-Serif" font-size="10.00">Observer</text>
</g>
<!-- A5 -->
<g id="node6" class="node"><title>A5</title>
<polygon fill="none" stroke="black" points="692.104,-88.5 692.104,-124.5 820.106,-124.5 820.106,-88.5 692.104,-88.5"/>
<text text-anchor="middle" x="756.105" y="-109.5" font-family="Helvetica,sans-Serif" font-size="10.00">Note: Vom Framework</text>
<text text-anchor="middle" x="756.105" y="-97.5" font-family="Helvetica,sans-Serif" font-size="10.00">bereitgestellt</text>
</g>
<!-- A5&#45;&gt;A2JA4 -->
<g id="edge6" class="edge"><title>A5&#45;&gt;A2JA4</title>
<path fill="none" stroke="black" stroke-dasharray="5,2" d="M691.829,-98.429C678.266,-92.9744 667.773,-84.0429 667.104,-69.5 665.49,-34.3957 721.338,-25.4405 745.362,-23.2141"/>
<polygon fill="black" stroke="black" points="755.524,-22.5194 745.854,-27.691 750.535,-22.8604 745.547,-23.2015 745.547,-23.2015 745.547,-23.2015 750.535,-22.8604 745.24,-18.712 755.524,-22.5194 755.524,-22.5194"/>
</g>
<!-- A5&#45;&gt;A3JA6 -->
<g id="edge9" class="edge"><title>A5&#45;&gt;A3JA6</title>
<path fill="none" stroke="black" stroke-dasharray="5,2" d="M756.105,-88.2891C756.105,-85.6333 756.105,-82.9775 756.105,-80.3218"/>
<polygon fill="black" stroke="black" points="756.105,-70.0781 760.605,-80.0781 756.105,-75.0781 756.105,-80.0781 756.105,-80.0781 756.105,-80.0781 756.105,-75.0781 751.605,-80.0782 756.105,-70.0781 756.105,-70.0781"/>
</g>
<!-- A2JA4&#45;&gt;A4 -->
<g id="edge5" class="edge"><title>A2JA4&#45;&gt;A4</title>
<path fill="none" stroke="black" stroke-dasharray="5,2" d="M757.219,-22.4971C760.064,-22.4247 815.648,-21.0097 859.882,-19.8836"/>
<polygon fill="black" stroke="black" points="869.982,-19.6265 860.1,-24.3797 864.984,-19.7538 859.985,-19.8811 859.985,-19.8811 859.985,-19.8811 864.984,-19.7538 859.871,-15.3826 869.982,-19.6265 869.982,-19.6265"/>
</g>
<!-- A6 -->
<g id="node8" class="node"><title>A6</title>
<polygon fill="none" stroke="black" points="870.106,-55.5 870.106,-91.5 960.364,-91.5 960.364,-55.5 870.106,-55.5"/>
<text text-anchor="middle" x="915.235" y="-76.5" font-family="Helvetica,sans-Serif" font-size="10.00">&lt;&lt;Interface&gt;&gt;</text>
<text text-anchor="middle" x="915.235" y="-64.5" font-family="Helvetica,sans-Serif" font-size="10.00">Observable</text>
</g>
<!-- A3JA6&#45;&gt;A6 -->
<g id="edge8" class="edge"><title>A3JA6&#45;&gt;A6</title>
<path fill="none" stroke="black" stroke-dasharray="5,2" d="M757.219,-69.5029C760.064,-69.5753 815.648,-70.9903 859.882,-72.1164"/>
<polygon fill="black" stroke="black" points="869.982,-72.3735 859.871,-76.6174 864.984,-72.2462 859.985,-72.1189 859.985,-72.1189 859.985,-72.1189 864.984,-72.2462 860.1,-67.6203 869.982,-72.3735 869.982,-72.3735"/>
</g>
</g>
</svg>
