<?xml version="1.0" encoding="UTF-8" standalone="no"?>
<!DOCTYPE svg PUBLIC "-//W3C//DTD SVG 1.1//EN"
 "http://www.w3.org/Graphics/SVG/1.1/DTD/svg11.dtd">
<!-- Generated by graphviz version 2.38.0 (20140413.2041)
 -->
<!-- Title: G Pages: 1 -->
<svg width="286pt" height="654pt"
 viewBox="0.00 0.00 286.13 654.00" xmlns="http://www.w3.org/2000/svg" xmlns:xlink="http://www.w3.org/1999/xlink">
<g id="graph0" class="graph" transform="scale(1 1) rotate(0) translate(4 650)">
<title>G</title>
<polygon fill="white" stroke="none" points="-4,4 -4,-650 282.13,-650 282.13,4 -4,4"/>
<!-- A0 -->
<g id="node1" class="node"><title>A0</title>
<polygon fill="none" stroke="black" points="80.986,-609.5 80.986,-645.5 169.016,-645.5 169.016,-609.5 80.986,-609.5"/>
<text text-anchor="middle" x="125.001" y="-630.5" font-family="Helvetica,sans-Serif" font-size="10.00">&lt;&lt;Abstract&gt;&gt;</text>
<text text-anchor="middle" x="125.001" y="-618.5" font-family="Helvetica,sans-Serif" font-size="10.00">User</text>
</g>
<!-- A1 -->
<g id="node2" class="node"><title>A1</title>
<polygon fill="none" stroke="black" points="95.4395,-435.5 95.4395,-471.5 154.562,-471.5 154.562,-435.5 95.4395,-435.5"/>
<text text-anchor="middle" x="125.001" y="-450.5" font-family="Helvetica,sans-Serif" font-size="10.00">Patient</text>
</g>
<!-- A0&#45;&gt;A1 -->
<g id="edge1" class="edge"><title>A0&#45;&gt;A1</title>
<path fill="none" stroke="black" d="M121.034,-599.28C119.436,-587.003 117.787,-572.302 117.001,-559 116.032,-542.584 116.032,-538.416 117.001,-522 118.017,-504.801 120.476,-485.265 122.402,-471.651"/>
<polygon fill="none" stroke="black" points="117.587,-599.911 122.402,-609.349 124.523,-598.969 117.587,-599.911"/>
</g>
<!-- A2 -->
<g id="node3" class="node"><title>A2</title>
<polygon fill="none" stroke="black" points="126.001,-522.5 126.001,-558.5 180.001,-558.5 180.001,-522.5 126.001,-522.5"/>
<text text-anchor="middle" x="152.779" y="-537.5" font-family="Helvetica,sans-Serif" font-size="10.00">Artzt</text>
</g>
<!-- A0&#45;&gt;A2 -->
<g id="edge2" class="edge"><title>A0&#45;&gt;A2</title>
<path fill="none" stroke="black" d="M133.853,-599.629C138.267,-586.229 143.474,-570.421 147.343,-558.675"/>
<polygon fill="none" stroke="black" points="130.472,-598.706 130.667,-609.299 137.12,-600.896 130.472,-598.706"/>
</g>
<!-- A3 -->
<g id="node4" class="node"><title>A3</title>
<polygon fill="none" stroke="black" points="27.332,-348.5 27.332,-384.5 118.67,-384.5 118.67,-348.5 27.332,-348.5"/>
<text text-anchor="middle" x="73.001" y="-363.5" font-family="Helvetica,sans-Serif" font-size="10.00">JournalLibrary</text>
</g>
<!-- A1&#45;&gt;A3 -->
<g id="edge4" class="edge"><title>A1&#45;&gt;A3</title>
<path fill="none" stroke="black" d="M108.078,-424.838C101.883,-414.711 94.9012,-403.298 88.8072,-393.337"/>
<polygon fill="black" stroke="black" points="108.216,-425.063 114.759,-428.093 114.478,-435.299 107.935,-432.268 108.216,-425.063"/>
<polygon fill="black" stroke="black" points="83.5083,-384.675 92.5656,-390.857 86.1176,-388.941 88.7269,-393.206 88.7269,-393.206 88.7269,-393.206 86.1176,-388.941 84.8883,-395.554 83.5083,-384.675 83.5083,-384.675"/>
<text text-anchor="middle" x="100.178" y="-392.727" font-family="Helvetica,sans-Serif" font-size="10.00">1</text>
<text text-anchor="middle" x="97.8086" y="-421.248" font-family="Helvetica,sans-Serif" font-size="10.00">1</text>
</g>
<!-- A5 -->
<g id="node6" class="node"><title>A5</title>
<polygon fill="none" stroke="black" points="136.776,-348.5 136.776,-384.5 219.226,-384.5 219.226,-348.5 136.776,-348.5"/>
<text text-anchor="middle" x="178.001" y="-363.5" font-family="Helvetica,sans-Serif" font-size="10.00">LevelLibrary</text>
</g>
<!-- A1&#45;&gt;A5 -->
<g id="edge6" class="edge"><title>A1&#45;&gt;A5</title>
<path fill="none" stroke="black" d="M142.249,-424.838C148.564,-414.711 155.68,-403.298 161.891,-393.337"/>
<polygon fill="black" stroke="black" points="142.076,-425.116 142.295,-432.324 135.726,-435.299 135.507,-428.091 142.076,-425.116"/>
<polygon fill="black" stroke="black" points="167.292,-384.675 165.819,-395.542 164.646,-388.918 162.001,-393.161 162.001,-393.161 162.001,-393.161 164.646,-388.918 158.182,-390.78 167.292,-384.675 167.292,-384.675"/>
<text text-anchor="middle" x="164.873" y="-401.529" font-family="Helvetica,sans-Serif" font-size="10.00">1</text>
<text text-anchor="middle" x="138.145" y="-412.446" font-family="Helvetica,sans-Serif" font-size="10.00">1</text>
</g>
<!-- A2&#45;&gt;A1 -->
<g id="edge3" class="edge"><title>A2&#45;&gt;A1</title>
<path fill="none" stroke="black" d="M147.335,-522.299C143.464,-510.547 138.256,-494.738 133.843,-481.342"/>
<polygon fill="black" stroke="black" points="130.659,-471.675 138.062,-479.765 132.223,-476.424 133.788,-481.173 133.788,-481.173 133.788,-481.173 132.223,-476.424 129.514,-482.581 130.659,-471.675 130.659,-471.675"/>
<text text-anchor="middle" x="144.358" y="-483.247" font-family="Helvetica,sans-Serif" font-size="10.00">*</text>
<text text-anchor="middle" x="133.636" y="-504.727" font-family="Helvetica,sans-Serif" font-size="10.00">1</text>
</g>
<!-- A4 -->
<g id="node5" class="node"><title>A4</title>
<polygon fill="none" stroke="black" points="32.056,-261.5 32.056,-297.5 113.946,-297.5 113.946,-261.5 32.056,-261.5"/>
<text text-anchor="middle" x="73.001" y="-276.5" font-family="Helvetica,sans-Serif" font-size="10.00">LibraryEntry</text>
</g>
<!-- A3&#45;&gt;A4 -->
<g id="edge5" class="edge"><title>A3&#45;&gt;A4</title>
<path fill="none" stroke="black" d="M73.001,-348.299C73.001,-336.663 73.001,-321.048 73.001,-307.737"/>
<polygon fill="black" stroke="black" points="73.001,-297.675 77.5011,-307.675 73.001,-302.675 73.0011,-307.675 73.0011,-307.675 73.0011,-307.675 73.001,-302.675 68.5011,-307.675 73.001,-297.675 73.001,-297.675"/>
<text text-anchor="middle" x="81.4534" y="-312.802" font-family="Helvetica,sans-Serif" font-size="10.00">*</text>
<text text-anchor="middle" x="64.5486" y="-327.173" font-family="Helvetica,sans-Serif" font-size="10.00">1</text>
</g>
<!-- A6 -->
<g id="node7" class="node"><title>A6</title>
<polygon fill="none" stroke="black" points="151.001,-261.5 151.001,-297.5 205.001,-297.5 205.001,-261.5 151.001,-261.5"/>
<text text-anchor="middle" x="177.949" y="-276.5" font-family="Helvetica,sans-Serif" font-size="10.00">Level</text>
</g>
<!-- A5&#45;&gt;A6 -->
<g id="edge7" class="edge"><title>A5&#45;&gt;A6</title>
<path fill="none" stroke="black" d="M178.001,-348.299C178.001,-336.663 178.001,-321.048 178.001,-307.737"/>
<polygon fill="black" stroke="black" points="178.001,-297.675 182.501,-307.675 178.001,-302.675 178.001,-307.675 178.001,-307.675 178.001,-307.675 178.001,-302.675 173.501,-307.675 178.001,-297.675 178.001,-297.675"/>
<text text-anchor="middle" x="186.453" y="-312.802" font-family="Helvetica,sans-Serif" font-size="10.00">*</text>
<text text-anchor="middle" x="169.549" y="-327.173" font-family="Helvetica,sans-Serif" font-size="10.00">1</text>
</g>
<!-- A7 -->
<g id="node8" class="node"><title>A7</title>
<polygon fill="none" stroke="black" points="109.495,-174.5 109.495,-210.5 182.506,-210.5 182.506,-174.5 109.495,-174.5"/>
<text text-anchor="middle" x="146.001" y="-189.5" font-family="Helvetica,sans-Serif" font-size="10.00">Challange</text>
</g>
<!-- A6&#45;&gt;A7 -->
<g id="edge8" class="edge"><title>A6&#45;&gt;A7</title>
<path fill="none" stroke="black" d="M171.525,-261.299C167.101,-249.547 161.15,-233.738 156.106,-220.342"/>
<polygon fill="black" stroke="black" points="152.467,-210.675 160.202,-218.449 154.229,-215.355 155.99,-220.034 155.99,-220.034 155.99,-220.034 154.229,-215.355 151.779,-221.62 152.467,-210.675 152.467,-210.675"/>
<text text-anchor="middle" x="166.764" y="-221.661" font-family="Helvetica,sans-Serif" font-size="10.00">*</text>
<text text-anchor="middle" x="157.229" y="-244.313" font-family="Helvetica,sans-Serif" font-size="10.00">1</text>
</g>
<!-- A6JA8 -->
<!-- A6&#45;&gt;A6JA8 -->
<g id="edge9" class="edge"><title>A6&#45;&gt;A6JA8</title>
<path fill="none" stroke="black" stroke-dasharray="5,2" d="M181.686,-261.323C184.579,-247.695 188.664,-228.152 192.001,-211 200.736,-166.111 210.378,-110.124 210.972,-106.668"/>
<text text-anchor="middle" x="177.173" y="-238.838" font-family="Helvetica,sans-Serif" font-size="10.00">implements</text>
</g>
<!-- A7JA10 -->
<!-- A7&#45;&gt;A7JA10 -->
<g id="edge12" class="edge"><title>A7&#45;&gt;A7JA10</title>
<path fill="none" stroke="black" stroke-dasharray="5,2" d="M146.001,-174.299C146.001,-150.238 146.001,-109.167 146.001,-106.624"/>
<text text-anchor="middle" x="137.549" y="-153.173" font-family="Helvetica,sans-Serif" font-size="10.00">implements</text>
</g>
<!-- A8 -->
<g id="node9" class="node"><title>A8</title>
<polygon fill="none" stroke="black" points="187.872,-0.5 187.872,-36.5 278.13,-36.5 278.13,-0.5 187.872,-0.5"/>
<text text-anchor="middle" x="233.001" y="-21.5" font-family="Helvetica,sans-Serif" font-size="10.00">&lt;&lt;Interface&gt;&gt;</text>
<text text-anchor="middle" x="233.001" y="-9.5" font-family="Helvetica,sans-Serif" font-size="10.00">Observer</text>
</g>
<!-- A9 -->
<g id="node10" class="node"><title>A9</title>
<polygon fill="none" stroke="black" points="-2.84217e-14,-87.5 -2.84217e-14,-123.5 128.002,-123.5 128.002,-87.5 -2.84217e-14,-87.5"/>
<text text-anchor="middle" x="64.001" y="-108.5" font-family="Helvetica,sans-Serif" font-size="10.00">Note: Vom Framework</text>
<text text-anchor="middle" x="64.001" y="-96.5" font-family="Helvetica,sans-Serif" font-size="10.00">bereitgestellt</text>
</g>
<!-- A9&#45;&gt;A6JA8 -->
<g id="edge11" class="edge"><title>A9&#45;&gt;A6JA8</title>
<path fill="none" stroke="black" stroke-dasharray="5,2" d="M83.7189,-123.615C99.4568,-136.078 122.664,-150.192 146.001,-149 170.665,-147.741 193.092,-126.315 204.012,-114.012"/>
<polygon fill="black" stroke="black" points="210.652,-105.969 207.756,-116.545 207.469,-109.825 204.286,-113.68 204.286,-113.68 204.286,-113.68 207.469,-109.825 200.816,-110.815 210.652,-105.969 210.652,-105.969"/>
</g>
<!-- A9&#45;&gt;A7JA10 -->
<g id="edge14" class="edge"><title>A9&#45;&gt;A7JA10</title>
<path fill="none" stroke="black" stroke-dasharray="5,2" d="M128.063,-105.5C130.507,-105.5 132.951,-105.5 135.394,-105.5"/>
<polygon fill="black" stroke="black" points="145.44,-105.5 135.44,-110 140.44,-105.5 135.44,-105.5 135.44,-105.5 135.44,-105.5 140.44,-105.5 135.44,-101 145.44,-105.5 145.44,-105.5"/>
</g>
<!-- A6JA8&#45;&gt;A8 -->
<g id="edge10" class="edge"><title>A6JA8&#45;&gt;A8</title>
<path fill="none" stroke="black" stroke-dasharray="5,2" d="M211.017,-104.438C211.429,-102.846 219.745,-70.7154 226.028,-46.4411"/>
<polygon fill="black" stroke="black" points="228.567,-36.6307 230.418,-47.4393 227.314,-41.4712 226.061,-46.3117 226.061,-46.3117 226.061,-46.3117 227.314,-41.4712 221.705,-45.1841 228.567,-36.6307 228.567,-36.6307"/>
</g>
<!-- A10 -->
<g id="node12" class="node"><title>A10</title>
<polygon fill="none" stroke="black" points="79.872,-0.5 79.872,-36.5 170.13,-36.5 170.13,-0.5 79.872,-0.5"/>
<text text-anchor="middle" x="125.001" y="-21.5" font-family="Helvetica,sans-Serif" font-size="10.00">&lt;&lt;Interface&gt;&gt;</text>
<text text-anchor="middle" x="125.001" y="-9.5" font-family="Helvetica,sans-Serif" font-size="10.00">Observable</text>
</g>
<!-- A7JA10&#45;&gt;A10 -->
<g id="edge13" class="edge"><title>A7JA10&#45;&gt;A10</title>
<path fill="none" stroke="black" stroke-dasharray="5,2" d="M145.986,-104.438C145.592,-102.846 137.654,-70.7154 131.657,-46.4411"/>
<polygon fill="black" stroke="black" points="129.233,-36.6307 136,-45.2595 130.433,-41.4848 131.632,-46.3388 131.632,-46.3388 131.632,-46.3388 130.433,-41.4848 127.263,-47.4182 129.233,-36.6307 129.233,-36.6307"/>
</g>
</g>
</svg>
