<?xml version="1.0" encoding="UTF-8" standalone="no"?>
<!DOCTYPE svg PUBLIC "-//W3C//DTD SVG 1.1//EN"
 "http://www.w3.org/Graphics/SVG/1.1/DTD/svg11.dtd">
<!-- Generated by graphviz version 2.38.0 (20140413.2041)
 -->
<!-- Title: G Pages: 1 -->
<svg width="348pt" height="694pt"
 viewBox="0.00 0.00 347.61 694.00" xmlns="http://www.w3.org/2000/svg" xmlns:xlink="http://www.w3.org/1999/xlink">
<g id="graph0" class="graph" transform="scale(1 1) rotate(0) translate(4 690)">
<title>G</title>
<polygon fill="white" stroke="none" points="-4,4 -4,-690 343.613,-690 343.613,4 -4,4"/>
<!-- A0 -->
<g id="node1" class="node"><title>A0</title>
<polygon fill="none" stroke="black" points="75.989,-647.5 75.989,-683.5 164.019,-683.5 164.019,-647.5 75.989,-647.5"/>
<text text-anchor="middle" x="120.004" y="-668.5" font-family="Helvetica,sans-Serif" font-size="10.00">&lt;&lt;Abstract&gt;&gt;</text>
<text text-anchor="middle" x="120.004" y="-656.5" font-family="Helvetica,sans-Serif" font-size="10.00">User</text>
</g>
<!-- A1 -->
<g id="node2" class="node"><title>A1</title>
<polygon fill="none" stroke="black" points="67.951,-467.5 67.951,-507.5 172.057,-507.5 172.057,-467.5 67.951,-467.5"/>
<text text-anchor="middle" x="120.004" y="-494.5" font-family="Helvetica,sans-Serif" font-size="10.00">Patient</text>
<polyline fill="none" stroke="black" points="67.951,-487.5 172.057,-487.5 "/>
<text text-anchor="middle" x="120.004" y="-474.5" font-family="Helvetica,sans-Serif" font-size="10.00">onNoDailyEntry()</text>
</g>
<!-- A0&#45;&gt;A1 -->
<g id="edge1" class="edge"><title>A0&#45;&gt;A1</title>
<path fill="none" stroke="black" d="M116.151,-637.373C114.518,-624.554 112.808,-609.02 112.004,-595 111.062,-578.583 111.062,-574.417 112.004,-558 112.985,-540.903 115.312,-521.556 117.205,-507.624"/>
<polygon fill="none" stroke="black" points="112.698,-637.958 117.484,-647.41 119.637,-637.037 112.698,-637.958"/>
</g>
<!-- A2 -->
<g id="node3" class="node"><title>A2</title>
<polygon fill="none" stroke="black" points="121.004,-558.5 121.004,-594.5 175.004,-594.5 175.004,-558.5 121.004,-558.5"/>
<text text-anchor="middle" x="147.782" y="-573.5" font-family="Helvetica,sans-Serif" font-size="10.00">Artzt</text>
</g>
<!-- A0&#45;&gt;A2 -->
<g id="edge2" class="edge"><title>A0&#45;&gt;A2</title>
<path fill="none" stroke="black" d="M128.634,-637.687C133.146,-623.665 138.536,-606.917 142.484,-594.653"/>
<polygon fill="none" stroke="black" points="125.268,-636.72 125.536,-647.312 131.931,-638.865 125.268,-636.72"/>
</g>
<!-- A3 -->
<g id="node4" class="node"><title>A3</title>
<polygon fill="none" stroke="black" points="2.13163e-14,-358.5 2.13163e-14,-410.5 108.008,-410.5 108.008,-358.5 2.13163e-14,-358.5"/>
<text text-anchor="middle" x="54.004" y="-397.5" font-family="Helvetica,sans-Serif" font-size="10.00">JournalLibrary</text>
<polyline fill="none" stroke="black" points="2.13163e-14,-390.5 108.008,-390.5 "/>
<text text-anchor="middle" x="54.004" y="-377.5" font-family="Helvetica,sans-Serif" font-size="10.00">&#45;checkDailyEvent:</text>
<text text-anchor="middle" x="54.004" y="-365.5" font-family="Helvetica,sans-Serif" font-size="10.00">boolean</text>
</g>
<!-- A1&#45;&gt;A3 -->
<g id="edge4" class="edge"><title>A1&#45;&gt;A3</title>
<path fill="none" stroke="black" d="M100.682,-456.932C92.9603,-445.115 84.0243,-431.44 76.0507,-419.238"/>
<polygon fill="black" stroke="black" points="100.714,-456.981 107.345,-459.815 107.279,-467.026 100.648,-464.192 100.714,-456.981"/>
<polygon fill="black" stroke="black" points="70.4459,-410.661 79.6832,-416.571 73.181,-414.847 75.9162,-419.032 75.9162,-419.032 75.9162,-419.032 73.181,-414.847 72.1491,-421.494 70.4459,-410.661 70.4459,-410.661"/>
<text text-anchor="middle" x="87.4369" y="-418.211" font-family="Helvetica,sans-Serif" font-size="10.00">1</text>
<text text-anchor="middle" x="90.2875" y="-453.476" font-family="Helvetica,sans-Serif" font-size="10.00">1</text>
</g>
<!-- A5 -->
<g id="node6" class="node"><title>A5</title>
<polygon fill="none" stroke="black" points="147.628,-352.5 147.628,-416.5 270.38,-416.5 270.38,-352.5 147.628,-352.5"/>
<text text-anchor="middle" x="209.004" y="-403.5" font-family="Helvetica,sans-Serif" font-size="10.00">LevelLibrary</text>
<polyline fill="none" stroke="black" points="147.628,-396.5 270.38,-396.5 "/>
<text text-anchor="middle" x="209.004" y="-383.5" font-family="Helvetica,sans-Serif" font-size="10.00">+addChallange(Level</text>
<text text-anchor="middle" x="209.004" y="-371.5" font-family="Helvetica,sans-Serif" font-size="10.00">destLevel, Challange</text>
<text text-anchor="middle" x="209.004" y="-359.5" font-family="Helvetica,sans-Serif" font-size="10.00">newChallange): void</text>
</g>
<!-- A1&#45;&gt;A5 -->
<g id="edge6" class="edge"><title>A1&#45;&gt;A5</title>
<path fill="none" stroke="black" d="M145.319,-457.772C154.47,-447.386 164.961,-435.482 174.751,-424.371"/>
<polygon fill="black" stroke="black" points="145.098,-458.023 144.132,-465.169 137.164,-467.026 138.13,-459.88 145.098,-458.023"/>
<polygon fill="black" stroke="black" points="181.393,-416.834 178.157,-427.312 178.087,-420.586 174.781,-424.337 174.781,-424.337 174.781,-424.337 178.087,-420.586 171.405,-421.362 181.393,-416.834 181.393,-416.834"/>
<text text-anchor="middle" x="175.75" y="-433.022" font-family="Helvetica,sans-Serif" font-size="10.00">1</text>
<text text-anchor="middle" x="142.806" y="-444.839" font-family="Helvetica,sans-Serif" font-size="10.00">1</text>
</g>
<!-- A2&#45;&gt;A1 -->
<g id="edge3" class="edge"><title>A2&#45;&gt;A1</title>
<path fill="none" stroke="black" d="M142.472,-558.312C138.738,-546.71 133.717,-531.108 129.369,-517.597"/>
<polygon fill="black" stroke="black" points="126.207,-507.773 133.554,-515.913 127.739,-512.532 129.27,-517.292 129.27,-517.292 129.27,-517.292 127.739,-512.532 124.987,-518.671 126.207,-507.773 126.207,-507.773"/>
<text text-anchor="middle" x="139.806" y="-519.438" font-family="Helvetica,sans-Serif" font-size="10.00">*</text>
<text text-anchor="middle" x="128.873" y="-540.647" font-family="Helvetica,sans-Serif" font-size="10.00">1</text>
</g>
<!-- A4 -->
<g id="node5" class="node"><title>A4</title>
<polygon fill="none" stroke="black" points="2.059,-263.5 2.059,-299.5 83.949,-299.5 83.949,-263.5 2.059,-263.5"/>
<text text-anchor="middle" x="43.004" y="-278.5" font-family="Helvetica,sans-Serif" font-size="10.00">LibraryEntry</text>
</g>
<!-- A3&#45;&gt;A4 -->
<g id="edge5" class="edge"><title>A3&#45;&gt;A4</title>
<path fill="none" stroke="black" d="M51.2566,-358.274C49.6487,-343.511 47.618,-324.865 45.9733,-309.764"/>
<polygon fill="black" stroke="black" points="44.8555,-299.5 50.4119,-308.954 45.3969,-304.471 45.9383,-309.442 45.9383,-309.442 45.9383,-309.442 45.3969,-304.471 41.4648,-309.929 44.8555,-299.5 44.8555,-299.5"/>
<text text-anchor="middle" x="55.2207" y="-313.605" font-family="Helvetica,sans-Serif" font-size="10.00">*</text>
<text text-anchor="middle" x="40.8914" y="-338.17" font-family="Helvetica,sans-Serif" font-size="10.00">1</text>
</g>
<!-- A6 -->
<g id="node7" class="node"><title>A6</title>
<polygon fill="none" stroke="black" points="102.395,-261.5 102.395,-301.5 339.613,-301.5 339.613,-261.5 102.395,-261.5"/>
<text text-anchor="middle" x="221.004" y="-288.5" font-family="Helvetica,sans-Serif" font-size="10.00">Level</text>
<polyline fill="none" stroke="black" points="102.395,-281.5 339.613,-281.5 "/>
<text text-anchor="middle" x="221.004" y="-268.5" font-family="Helvetica,sans-Serif" font-size="10.00">+addChallange(Challange newChallange): void</text>
</g>
<!-- A5&#45;&gt;A6 -->
<g id="edge7" class="edge"><title>A5&#45;&gt;A6</title>
<path fill="none" stroke="black" d="M212.702,-352.373C214.241,-339.422 216.018,-324.468 217.532,-311.725"/>
<polygon fill="black" stroke="black" points="218.731,-301.634 222.019,-312.095 218.141,-306.599 217.551,-311.564 217.551,-311.564 217.551,-311.564 218.141,-306.599 213.082,-311.033 218.731,-301.634 218.731,-301.634"/>
<text text-anchor="middle" x="224.985" y="-317.63" font-family="Helvetica,sans-Serif" font-size="10.00">*</text>
<text text-anchor="middle" x="206.448" y="-330.376" font-family="Helvetica,sans-Serif" font-size="10.00">1</text>
</g>
<!-- A7 -->
<g id="node8" class="node"><title>A7</title>
<polygon fill="none" stroke="black" points="152.499,-174.5 152.499,-210.5 225.51,-210.5 225.51,-174.5 152.499,-174.5"/>
<text text-anchor="middle" x="189.004" y="-189.5" font-family="Helvetica,sans-Serif" font-size="10.00">Challange</text>
</g>
<!-- A6&#45;&gt;A7 -->
<g id="edge8" class="edge"><title>A6&#45;&gt;A7</title>
<path fill="none" stroke="black" d="M213.902,-261.192C209.471,-249.145 203.705,-233.467 198.837,-220.234"/>
<polygon fill="black" stroke="black" points="195.327,-210.692 203.003,-218.523 197.053,-215.384 198.779,-220.077 198.779,-220.077 198.779,-220.077 197.053,-215.384 194.556,-221.63 195.327,-210.692 195.327,-210.692"/>
<text text-anchor="middle" x="209.517" y="-221.786" font-family="Helvetica,sans-Serif" font-size="10.00">*</text>
<text text-anchor="middle" x="199.712" y="-244.098" font-family="Helvetica,sans-Serif" font-size="10.00">1</text>
</g>
<!-- A8 -->
<g id="node9" class="node"><title>A8</title>
<polygon fill="none" stroke="black" points="240.875,-87.5 240.875,-123.5 331.133,-123.5 331.133,-87.5 240.875,-87.5"/>
<text text-anchor="middle" x="286.004" y="-108.5" font-family="Helvetica,sans-Serif" font-size="10.00">&lt;&lt;Interface&gt;&gt;</text>
<text text-anchor="middle" x="286.004" y="-96.5" font-family="Helvetica,sans-Serif" font-size="10.00">Observer</text>
</g>
<!-- A6&#45;&gt;A8 -->
<g id="edge9" class="edge"><title>A6&#45;&gt;A8</title>
<path fill="none" stroke="black" stroke-dasharray="5,2" d="M228.208,-261.214C239.851,-230.048 262.828,-168.541 276.034,-133.189"/>
<polygon fill="black" stroke="black" points="279.639,-123.539 280.355,-134.482 277.889,-128.223 276.139,-132.907 276.139,-132.907 276.139,-132.907 277.889,-128.223 271.924,-131.332 279.639,-123.539 279.639,-123.539"/>
<text text-anchor="middle" x="226.634" y="-238.276" font-family="Helvetica,sans-Serif" font-size="10.00">implements</text>
</g>
<!-- A10 -->
<g id="node11" class="node"><title>A10</title>
<polygon fill="none" stroke="black" points="132.875,-87.5 132.875,-123.5 223.133,-123.5 223.133,-87.5 132.875,-87.5"/>
<text text-anchor="middle" x="178.004" y="-108.5" font-family="Helvetica,sans-Serif" font-size="10.00">&lt;&lt;Interface&gt;&gt;</text>
<text text-anchor="middle" x="178.004" y="-96.5" font-family="Helvetica,sans-Serif" font-size="10.00">Subject</text>
</g>
<!-- A7&#45;&gt;A10 -->
<g id="edge11" class="edge"><title>A7&#45;&gt;A10</title>
<path fill="none" stroke="black" stroke-dasharray="5,2" d="M186.778,-174.299C185.272,-162.663 183.251,-147.048 181.529,-133.737"/>
<polygon fill="black" stroke="black" points="180.227,-123.675 185.973,-133.015 180.868,-128.634 181.51,-133.593 181.51,-133.593 181.51,-133.593 180.868,-128.634 177.047,-134.17 180.227,-123.675 180.227,-123.675"/>
<text text-anchor="middle" x="176.069" y="-154.408" font-family="Helvetica,sans-Serif" font-size="10.00">implements</text>
</g>
<!-- A9 -->
<g id="node10" class="node"><title>A9</title>
<polygon fill="none" stroke="black" points="168.003,-0.5 168.003,-36.5 296.005,-36.5 296.005,-0.5 168.003,-0.5"/>
<text text-anchor="middle" x="232.004" y="-21.5" font-family="Helvetica,sans-Serif" font-size="10.00">Note: Vom Framework</text>
<text text-anchor="middle" x="232.004" y="-9.5" font-family="Helvetica,sans-Serif" font-size="10.00">bereitgestellt</text>
</g>
<!-- A8&#45;&gt;A9 -->
<g id="edge10" class="edge"><title>A8&#45;&gt;A9</title>
<path fill="none" stroke="black" d="M275.076,-87.299C265.708,-72.5519 252.28,-51.4152 242.915,-36.6754"/>
</g>
<!-- A10&#45;&gt;A9 -->
<g id="edge12" class="edge"><title>A10&#45;&gt;A9</title>
<path fill="none" stroke="black" d="M188.932,-87.299C198.3,-72.5519 211.728,-51.4152 221.093,-36.6754"/>
</g>
<!-- A11 -->
<g id="node12" class="node"><title>A11</title>
<polygon fill="none" stroke="black" points="181.777,-645.5 181.777,-685.5 304.231,-685.5 304.231,-645.5 181.777,-645.5"/>
<text text-anchor="middle" x="243.004" y="-672.5" font-family="Helvetica,sans-Serif" font-size="10.00">UI</text>
<polyline fill="none" stroke="black" points="181.777,-665.5 304.231,-665.5 "/>
<text text-anchor="middle" x="243.004" y="-652.5" font-family="Helvetica,sans-Serif" font-size="10.00">showMessage(): void</text>
</g>
</g>
</svg>
