<?xml version="1.0" encoding="UTF-8" standalone="no"?>
<!DOCTYPE svg PUBLIC "-//W3C//DTD SVG 1.1//EN"
 "http://www.w3.org/Graphics/SVG/1.1/DTD/svg11.dtd">
<!-- Generated by graphviz version 2.38.0 (20140413.2041)
 -->
<!-- Title: G Pages: 1 -->
<svg width="340pt" height="45pt"
 viewBox="0.00 0.00 340.35 45.00" xmlns="http://www.w3.org/2000/svg" xmlns:xlink="http://www.w3.org/1999/xlink">
<g id="graph0" class="graph" transform="scale(1 1) rotate(0) translate(4 41)">
<title>G</title>
<polygon fill="white" stroke="none" points="-4,4 -4,-41 336.351,-41 336.351,4 -4,4"/>
<!-- A0 -->
<g id="node1" class="node"><title>A0</title>
<polygon fill="none" stroke="black" points="2.84217e-14,-0.5 2.84217e-14,-36.5 59.123,-36.5 59.123,-0.5 2.84217e-14,-0.5"/>
<text text-anchor="middle" x="29.5615" y="-15.5" font-family="Helvetica,sans-Serif" font-size="10.00">Patient</text>
</g>
<!-- A1 -->
<g id="node2" class="node"><title>A1</title>
<polygon fill="none" stroke="black" points="109.123,-0.5 109.123,-36.5 200.461,-36.5 200.461,-0.5 109.123,-0.5"/>
<text text-anchor="middle" x="154.792" y="-15.5" font-family="Helvetica,sans-Serif" font-size="10.00">JournalLibrary</text>
</g>
<!-- A0&#45;&gt;A1 -->
<g id="edge1" class="edge"><title>A0&#45;&gt;A1</title>
<path fill="none" stroke="black" d="M71.2079,-18.5C79.9926,-18.5 89.423,-18.5 98.6571,-18.5"/>
<polygon fill="black" stroke="black" points="71.1428,-18.5001 65.1428,-22.5 59.1428,-18.5 65.1428,-14.5 71.1428,-18.5001"/>
<polygon fill="black" stroke="black" points="108.954,-18.5 98.9544,-23.0001 103.954,-18.5 98.9544,-18.5001 98.9544,-18.5001 98.9544,-18.5001 103.954,-18.5 98.9543,-14.0001 108.954,-18.5 108.954,-18.5"/>
<text text-anchor="middle" x="90.8282" y="-23.9524" font-family="Helvetica,sans-Serif" font-size="10.00">1</text>
<text text-anchor="middle" x="77.2689" y="-7.04763" font-family="Helvetica,sans-Serif" font-size="10.00">1</text>
</g>
<!-- A2 -->
<g id="node3" class="node"><title>A2</title>
<polygon fill="none" stroke="black" points="250.461,-0.5 250.461,-36.5 332.351,-36.5 332.351,-0.5 250.461,-0.5"/>
<text text-anchor="middle" x="291.406" y="-15.5" font-family="Helvetica,sans-Serif" font-size="10.00">LibraryEntry</text>
</g>
<!-- A1&#45;&gt;A2 -->
<g id="edge2" class="edge"><title>A1&#45;&gt;A2</title>
<path fill="none" stroke="black" d="M200.617,-18.5C213.29,-18.5 227.165,-18.5 240.136,-18.5"/>
<polygon fill="black" stroke="black" points="250.305,-18.5 240.305,-23.0001 245.305,-18.5 240.305,-18.5001 240.305,-18.5001 240.305,-18.5001 245.305,-18.5 240.305,-14.0001 250.305,-18.5 250.305,-18.5"/>
<text text-anchor="middle" x="232.179" y="-23.9524" font-family="Helvetica,sans-Serif" font-size="10.00">*</text>
<text text-anchor="middle" x="218.743" y="-7.04763" font-family="Helvetica,sans-Serif" font-size="10.00">1</text>
</g>
</g>
</svg>
