<?xml version="1.0" encoding="UTF-8" standalone="no"?>
<!DOCTYPE svg PUBLIC "-//W3C//DTD SVG 1.1//EN"
 "http://www.w3.org/Graphics/SVG/1.1/DTD/svg11.dtd">
<!-- Generated by graphviz version 2.38.0 (20140413.2041)
 -->
<!-- Title: G Pages: 1 -->
<svg width="357pt" height="61pt"
 viewBox="0.00 0.00 357.02 61.00" xmlns="http://www.w3.org/2000/svg" xmlns:xlink="http://www.w3.org/1999/xlink">
<g id="graph0" class="graph" transform="scale(1 1) rotate(0) translate(4 57)">
<title>G</title>
<polygon fill="white" stroke="none" points="-4,4 -4,-57 353.021,-57 353.021,4 -4,4"/>
<!-- A0 -->
<g id="node1" class="node"><title>A0</title>
<polygon fill="none" stroke="black" points="2.84217e-14,-8.5 2.84217e-14,-44.5 59.123,-44.5 59.123,-8.5 2.84217e-14,-8.5"/>
<text text-anchor="middle" x="29.5615" y="-23.5" font-family="Helvetica,sans-Serif" font-size="10.00">Patient</text>
</g>
<!-- A1 -->
<g id="node2" class="node"><title>A1</title>
<polygon fill="none" stroke="black" points="109.123,-0.5 109.123,-52.5 217.131,-52.5 217.131,-0.5 109.123,-0.5"/>
<text text-anchor="middle" x="163.127" y="-39.5" font-family="Helvetica,sans-Serif" font-size="10.00">JournalLibrary</text>
<polyline fill="none" stroke="black" points="109.123,-32.5 217.131,-32.5 "/>
<text text-anchor="middle" x="163.127" y="-19.5" font-family="Helvetica,sans-Serif" font-size="10.00">&#45;checkDailyEvent:</text>
<text text-anchor="middle" x="163.127" y="-7.5" font-family="Helvetica,sans-Serif" font-size="10.00">boolean</text>
</g>
<!-- A0&#45;&gt;A1 -->
<g id="edge1" class="edge"><title>A0&#45;&gt;A1</title>
<path fill="none" stroke="black" d="M71.6703,-26.5C80.2483,-26.5 89.4808,-26.5 98.6535,-26.5"/>
<polygon fill="black" stroke="black" points="71.4341,-26.5001 65.4341,-30.5 59.4341,-26.5 65.4341,-22.5 71.4341,-26.5001"/>
<polygon fill="black" stroke="black" points="108.946,-26.5 98.9462,-31.0001 103.946,-26.5 98.9461,-26.5001 98.9461,-26.5001 98.9461,-26.5001 103.946,-26.5 98.9461,-22.0001 108.946,-26.5 108.946,-26.5"/>
<text text-anchor="middle" x="90.82" y="-31.9524" font-family="Helvetica,sans-Serif" font-size="10.00">1</text>
<text text-anchor="middle" x="77.5603" y="-15.0476" font-family="Helvetica,sans-Serif" font-size="10.00">1</text>
</g>
<!-- A2 -->
<g id="node3" class="node"><title>A2</title>
<polygon fill="none" stroke="black" points="267.131,-8.5 267.131,-44.5 349.021,-44.5 349.021,-8.5 267.131,-8.5"/>
<text text-anchor="middle" x="308.076" y="-23.5" font-family="Helvetica,sans-Serif" font-size="10.00">LibraryEntry</text>
</g>
<!-- A1&#45;&gt;A2 -->
<g id="edge2" class="edge"><title>A1&#45;&gt;A2</title>
<path fill="none" stroke="black" d="M217.356,-26.5C230.131,-26.5 243.74,-26.5 256.396,-26.5"/>
<polygon fill="black" stroke="black" points="266.763,-26.5 256.763,-31.0001 261.763,-26.5 256.763,-26.5001 256.763,-26.5001 256.763,-26.5001 261.763,-26.5 256.763,-22.0001 266.763,-26.5 266.763,-26.5"/>
<text text-anchor="middle" x="248.637" y="-31.9524" font-family="Helvetica,sans-Serif" font-size="10.00">*</text>
<text text-anchor="middle" x="235.482" y="-15.0476" font-family="Helvetica,sans-Serif" font-size="10.00">1</text>
</g>
</g>
</svg>
