<?xml version="1.0" encoding="UTF-8" standalone="no"?>
<!DOCTYPE svg PUBLIC "-//W3C//DTD SVG 1.1//EN"
 "http://www.w3.org/Graphics/SVG/1.1/DTD/svg11.dtd">
<!-- Generated by graphviz version 2.38.0 (20140413.2041)
 -->
<!-- Title: G Pages: 1 -->
<svg width="354pt" height="70pt"
 viewBox="0.00 0.00 354.14 70.00" xmlns="http://www.w3.org/2000/svg" xmlns:xlink="http://www.w3.org/1999/xlink">
<g id="graph0" class="graph" transform="scale(1 1) rotate(0) translate(4 66)">
<title>G</title>
<polygon fill="white" stroke="none" points="-4,4 -4,-66 350.136,-66 350.136,4 -4,4"/>
<!-- A0 -->
<g id="node1" class="node"><title>A0</title>
<polygon fill="none" stroke="black" points="-1.42109e-14,-23.5 -1.42109e-14,-59.5 88.03,-59.5 88.03,-23.5 -1.42109e-14,-23.5"/>
<text text-anchor="middle" x="44.015" y="-44.5" font-family="Helvetica,sans-Serif" font-size="10.00">&lt;&lt;Abstract&gt;&gt;</text>
<text text-anchor="middle" x="44.015" y="-32.5" font-family="Helvetica,sans-Serif" font-size="10.00">User</text>
</g>
<!-- A1 -->
<g id="node2" class="node"><title>A1</title>
<polygon fill="none" stroke="black" points="242.03,-21.5 242.03,-61.5 346.136,-61.5 346.136,-21.5 242.03,-21.5"/>
<text text-anchor="middle" x="294.083" y="-48.5" font-family="Helvetica,sans-Serif" font-size="10.00">Patient</text>
<polyline fill="none" stroke="black" points="242.03,-41.5 346.136,-41.5 "/>
<text text-anchor="middle" x="294.083" y="-28.5" font-family="Helvetica,sans-Serif" font-size="10.00">onNoDailyEntry()</text>
</g>
<!-- A0&#45;&gt;A1 -->
<g id="edge1" class="edge"><title>A0&#45;&gt;A1</title>
<path fill="none" stroke="black" d="M98.2676,-44.8556C111.27,-45.5388 125.147,-46.154 138.03,-46.5 162.021,-47.1444 168.037,-47.0932 192.03,-46.5 208.273,-46.0984 225.971,-45.3342 241.952,-44.5219"/>
<polygon fill="none" stroke="black" points="98.2392,-41.3489 88.0628,-44.297 97.8565,-48.3385 98.2392,-41.3489"/>
</g>
<!-- A2 -->
<g id="node3" class="node"><title>A2</title>
<polygon fill="none" stroke="black" points="138.03,-0.5 138.03,-36.5 192.03,-36.5 192.03,-0.5 138.03,-0.5"/>
<text text-anchor="middle" x="165.03" y="-15.5" font-family="Helvetica,sans-Serif" font-size="10.00">Arzt</text>
</g>
<!-- A0&#45;&gt;A2 -->
<g id="edge2" class="edge"><title>A0&#45;&gt;A2</title>
<path fill="none" stroke="black" d="M98.2207,-31.2178C111.988,-28.5572 126.211,-25.8086 137.897,-23.5503"/>
<polygon fill="none" stroke="black" points="97.473,-27.7975 88.3188,-33.1314 98.8013,-34.6703 97.473,-27.7975"/>
</g>
<!-- A2&#45;&gt;A1 -->
<g id="edge3" class="edge"><title>A2&#45;&gt;A1</title>
<path fill="none" stroke="black" d="M192.048,-23.2099C203.615,-25.3039 217.767,-27.8658 231.775,-30.4016"/>
<polygon fill="black" stroke="black" points="241.911,-32.2364 231.269,-34.8831 236.991,-31.3457 232.071,-30.455 232.071,-30.455 232.071,-30.455 236.991,-31.3457 232.872,-26.027 241.911,-32.2364 241.911,-32.2364"/>
<text text-anchor="middle" x="222.569" y="-34.3248" font-family="Helvetica,sans-Serif" font-size="10.00">*</text>
<text text-anchor="middle" x="211.39" y="-15.1216" font-family="Helvetica,sans-Serif" font-size="10.00">1</text>
</g>
</g>
</svg>
