<?xml version="1.0" encoding="utf-8"?>
<!-- Generator: Adobe Illustrator 21.1.0, SVG Export Plug-In . SVG Version: 6.00 Build 0)  -->
<svg version="1.1" id="Layer_1" xmlns="http://www.w3.org/2000/svg" xmlns:xlink="http://www.w3.org/1999/xlink" x="0px" y="0px"
	 viewBox="0 0 738 286" style="enable-background:new 0 0 738 286;" xml:space="preserve">
<style type="text/css">
	.st0{fill:none;stroke:#000000;}
	.st1{font-family:'Helvetica';}
	.st2{font-size:13px;}
	.st3{fill:none;stroke:#000000;stroke-dasharray:7,4;}
	.st4{fill:#FFFFFF;}
</style>
<title>CreateChallange</title>
<desc>Created with Sketch.</desc>
<g id="Page-1">
	<g id="CreateChallange" transform="translate(1.000000, 1.000000)">
		<rect id="Rectangle-path" class="st0" width="139" height="56"/>
		<text transform="matrix(1 0 0 1 28 28)" class="st1 st2">User1: Patient</text>
		<rect id="Rectangle-path_1_" y="228" class="st0" width="139" height="56"/>
		<text transform="matrix(1 0 0 1 28 256)" class="st1 st2">User1: Patient</text>
		<path id="Shape" class="st0" d="M69.5,56v172"/>
		<rect id="Rectangle-path_2_" x="364.2" class="st0" width="130.5" height="56"/>
		<g id="Group" transform="translate(390.000000, 6.000000)">
			<text transform="matrix(1 0 0 1 0 13)" class="st1 st2">User1Library:</text>
			<text transform="matrix(1 0 0 1 4 31)" class="st1 st2">LevelLibrary</text>
		</g>
		<rect id="Rectangle-path_3_" x="364.2" y="228" class="st0" width="130.5" height="56"/>
		<g id="Group_1_" transform="translate(390.000000, 234.000000)">
			<text transform="matrix(1 0 0 1 0 13)" class="st1 st2">User1Library:</text>
			<text transform="matrix(1 0 0 1 4 31)" class="st1 st2">LevelLibrary</text>
		</g>
		<path id="Shape_1_" class="st0" d="M429.5,56v172"/>
		<rect id="Rectangle-path_4_" x="605.2" class="st0" width="130.5" height="56"/>
		<text transform="matrix(1 0 0 1 634 28)" class="st1 st2">level2: Level</text>
		<rect id="Rectangle-path_5_" x="605.2" y="228" class="st0" width="130.5" height="56"/>
		<text transform="matrix(1 0 0 1 634 256)" class="st1 st2">level2: Level</text>
		<path id="Shape_2_" class="st0" d="M670.5,56v172"/>
		<text transform="matrix(1 0 0 1 124 81)" class="st1 st2">addChallange(currentLevel, newChallange)</text>
		<g id="Shape_3_">
			<g>
				<line class="st0" x1="69.5" y1="94" x2="422.3" y2="94"/>
				<g>
					<polygon points="420.9,99 429.5,94 420.9,89 					"/>
				</g>
			</g>
		</g>
		<text transform="matrix(1 0 0 1 464 119)" class="st1 st2">addChallange(newChallange)</text>
		<g id="Shape_4_">
			<g>
				<line class="st0" x1="429.5" y1="132" x2="663.3" y2="132"/>
				<g>
					<polygon points="661.9,137 670.5,132 661.9,127 					"/>
				</g>
			</g>
		</g>
		<g id="Shape_5_">
			<g>
				<line class="st3" x1="670.5" y1="170.7" x2="439.7" y2="170.7"/>
				<g>
					<polygon points="441.1,165.8 432.5,170.7 441.1,175.7 					"/>
				</g>
			</g>
		</g>
		<g id="Shape_6_">
			<g>
				<line class="st3" x1="429.5" y1="208.3" x2="77.7" y2="208.3"/>
				<g>
					<polygon points="79.1,203.3 70.5,208.3 79.1,213.3 					"/>
				</g>
			</g>
		</g>
		<g id="Rectangle">
			<g>
				<rect id="path-1" x="67" y="94" class="st4" width="7" height="114"/>
			</g>
			<rect x="67.5" y="94.5" class="st0" width="6" height="113"/>
		</g>
		<g id="Rectangle_1_">
			<g>
				<rect id="path-2" x="426" y="94" class="st4" width="7" height="114"/>
			</g>
			<rect x="426.5" y="94.5" class="st0" width="6" height="113"/>
		</g>
		<g id="Rectangle_2_" transform="translate(670.500000, 151.000000) scale(-1, 1) translate(-670.500000, -151.000000) ">
			<g>
				<rect id="path-3" x="667" y="170" class="st4" width="7" height="-38"/>
			</g>
			<rect x="667.5" y="169.5" class="st0" width="6" height="-37"/>
		</g>
	</g>
</g>
</svg>
