<svg xmlns="http://www.w3.org/2000/svg" width="775.75" height="324">
<defs><marker id="arrow-filled" refX="6" refY="3" markerWidth="6" markerHeight="6" orient="auto"><path d="M0,0 6,3 0,6z" style="stroke: none; fill: black;"></path></marker><marker id="arrow-open" refX="6" refY="3" markerWidth="6" markerHeight="6" orient="auto"><path d="M0,0 6,3 0,6" style="stroke-width: 1; stroke: black;"></path></marker></defs><rect width="139" height="56" style="stroke-width: 1; fill: none; stroke: black;" x="10" y="20"></rect><g><text fill="black" x="79.5" y="48" style="text-anchor: middle; alignment-baseline: central;">User1: Patient</text></g><rect width="139" height="56" style="stroke-width: 1; fill: none; stroke: black;" x="10" y="248"></rect><g><text fill="black" x="79.5" y="276" style="text-anchor: middle; alignment-baseline: central;">User1: Patient</text></g><path d="M79.5,76 v172" style="stroke-width: 1; fill: none; stroke: black;"></path><rect width="130.5" height="56" style="stroke-width: 1; fill: none; stroke: black;" x="374.25" y="20"></rect><g><text fill="black" x="439.5" y="39" style="text-anchor: middle; alignment-baseline: central;">User1Library:</text><text fill="black" x="439.5" y="57" style="text-anchor: middle; alignment-baseline: central;">LevelLibrary</text></g><rect width="130.5" height="56" style="stroke-width: 1; fill: none; stroke: black;" x="374.25" y="248"></rect><g><text fill="black" x="439.5" y="267" style="text-anchor: middle; alignment-baseline: central;">User1Library:</text><text fill="black" x="439.5" y="285" style="text-anchor: middle; alignment-baseline: central;">LevelLibrary</text></g><path d="M439.5,76 v172" style="stroke-width: 1; fill: none; stroke: black;"></path><rect width="130.5" height="56" style="stroke-width: 1; fill: none; stroke: black;" x="615.25" y="20"></rect><g><text fill="black" x="680.5" y="48" style="text-anchor: middle; alignment-baseline: central;">level2: Level</text></g><rect width="130.5" height="56" style="stroke-width: 1; fill: none; stroke: black;" x="615.25" y="248"></rect><g><text fill="black" x="680.5" y="276" style="text-anchor: middle; alignment-baseline: central;">level2: Level</text></g><path d="M680.5,76 v172" style="stroke-width: 1; fill: none; stroke: black;"></path><g><text fill="black" x="259.5" y="101" style="text-anchor: middle; alignment-baseline: central;">addChallange(currentLevel, newChallange)</text></g><path d="M79.5,114 h360" style="stroke-width: 1; fill: none; stroke: black;" marker-end="url(#arrow-filled)"></path><g><text fill="black" x="560" y="139" style="text-anchor: middle; alignment-baseline: central;">addChallange(newChallange)</text></g><path d="M439.5,152 h241" style="stroke-width: 1; fill: none; stroke: black;" marker-end="url(#arrow-filled)"></path><g><text fill="black" x="560" y="177" style="text-anchor: middle; alignment-baseline: central;"></text></g><path d="M680.5,190 h-241" style="stroke-width: 1; fill: none; stroke: black;" stroke-dasharray="7,4" marker-end="url(#arrow-filled)"></path><g><text fill="black" x="259.5" y="215" style="text-anchor: middle; alignment-baseline: central;"></text></g><path d="M439.5,228 h-360" style="stroke-width: 1; fill: none; stroke: black;" stroke-dasharray="7,4" marker-end="url(#arrow-filled)"></path></svg>