<svg xmlns="http://www.w3.org/2000/svg" width="855.25" height="400">
<defs><marker id="arrow-filled" refX="6" refY="3" markerWidth="6" markerHeight="6" orient="auto"><path d="M0,0 6,3 0,6z" style="stroke: none; fill: black;"></path></marker><marker id="arrow-open" refX="6" refY="3" markerWidth="6" markerHeight="6" orient="auto"><path d="M0,0 6,3 0,6" style="stroke-width: 1; stroke: black;"></path></marker></defs><rect width="20" height="56" style="stroke-width: 1; fill: none; stroke: black;" x="10" y="20"></rect><g><text fill="black" x="20" y="48" style="text-anchor: middle; alignment-baseline: central;"></text></g><rect width="20" height="56" style="stroke-width: 1; fill: none; stroke: black;" x="10" y="324"></rect><g><text fill="black" x="20" y="352" style="text-anchor: middle; alignment-baseline: central;"></text></g><path d="M20,76 v248" style="stroke-width: 1; fill: none; stroke: black;"></path><rect width="139" height="56" style="stroke-width: 1; fill: none; stroke: black;" x="89.5" y="20"></rect><g><text fill="black" x="159" y="48" style="text-anchor: middle; alignment-baseline: central;">User1: Patient</text></g><rect width="139" height="56" style="stroke-width: 1; fill: none; stroke: black;" x="89.5" y="324"></rect><g><text fill="black" x="159" y="352" style="text-anchor: middle; alignment-baseline: central;">User1: Patient</text></g><path d="M159,76 v248" style="stroke-width: 1; fill: none; stroke: black;"></path><rect width="130.5" height="56" style="stroke-width: 1; fill: none; stroke: black;" x="453.75" y="20"></rect><g><text fill="black" x="519" y="39" style="text-anchor: middle; alignment-baseline: central;">User1Library:</text><text fill="black" x="519" y="57" style="text-anchor: middle; alignment-baseline: central;">LevelLibrary</text></g><rect width="130.5" height="56" style="stroke-width: 1; fill: none; stroke: black;" x="453.75" y="324"></rect><g><text fill="black" x="519" y="343" style="text-anchor: middle; alignment-baseline: central;">User1Library:</text><text fill="black" x="519" y="361" style="text-anchor: middle; alignment-baseline: central;">LevelLibrary</text></g><path d="M519,76 v248" style="stroke-width: 1; fill: none; stroke: black;"></path><rect width="130.5" height="56" style="stroke-width: 1; fill: none; stroke: black;" x="694.75" y="20"></rect><g><text fill="black" x="760" y="48" style="text-anchor: middle; alignment-baseline: central;">level2: Level</text></g><rect width="130.5" height="56" style="stroke-width: 1; fill: none; stroke: black;" x="694.75" y="324"></rect><g><text fill="black" x="760" y="352" style="text-anchor: middle; alignment-baseline: central;">level2: Level</text></g><path d="M760,76 v248" style="stroke-width: 1; fill: none; stroke: black;"></path><g><text fill="black" x="89.5" y="101" style="text-anchor: middle; alignment-baseline: central;">addChallange()</text></g><path d="M20,114 h139" style="stroke-width: 1; fill: none; stroke: black;" marker-end="url(#arrow-filled)"></path><g><text fill="black" x="339" y="139" style="text-anchor: middle; alignment-baseline: central;">addChallange(currentLevel, newChallange)</text></g><path d="M159,152 h360" style="stroke-width: 1; fill: none; stroke: black;" marker-end="url(#arrow-filled)"></path><g><text fill="black" x="639.5" y="177" style="text-anchor: middle; alignment-baseline: central;">addChallange(newChallange)</text></g><path d="M519,190 h241" style="stroke-width: 1; fill: none; stroke: black;" marker-end="url(#arrow-filled)"></path><g><text fill="black" x="639.5" y="215" style="text-anchor: middle; alignment-baseline: central;"></text></g><path d="M760,228 h-241" style="stroke-width: 1; fill: none; stroke: black;" stroke-dasharray="7,4" marker-end="url(#arrow-filled)"></path><g><text fill="black" x="339" y="253" style="text-anchor: middle; alignment-baseline: central;"></text></g><path d="M519,266 h-360" style="stroke-width: 1; fill: none; stroke: black;" stroke-dasharray="7,4" marker-end="url(#arrow-filled)"></path><g><text fill="black" x="89.5" y="291" style="text-anchor: middle; alignment-baseline: central;">success</text></g><path d="M159,304 h-139" style="stroke-width: 1; fill: none; stroke: black;" stroke-dasharray="7,4" marker-end="url(#arrow-filled)"></path></svg>