<svg xmlns="http://www.w3.org/2000/svg" width="474.5" height="364">
<defs><marker id="arrow-filled" refX="6" refY="3" markerWidth="6" markerHeight="6" orient="auto"><path d="M0,0 6,3 0,6z" style="stroke: none; fill: black;"></path></marker><marker id="arrow-open" refX="6" refY="3" markerWidth="6" markerHeight="6" orient="auto"><path d="M0,0 6,3 0,6" style="stroke-width: 1; stroke: black;"></path></marker></defs><rect width="20" height="38" style="stroke-width: 1; fill: none; stroke: black;" x="10" y="20"></rect><g><text fill="black" x="20" y="39" style="text-anchor: middle; alignment-baseline: central;"></text></g><rect width="20" height="38" style="stroke-width: 1; fill: none; stroke: black;" x="10" y="306"></rect><g><text fill="black" x="20" y="325" style="text-anchor: middle; alignment-baseline: central;"></text></g><path d="M20,58 v248" style="stroke-width: 1; fill: none; stroke: black;"></path><rect width="139" height="38" style="stroke-width: 1; fill: none; stroke: black;" x="50" y="20"></rect><g><text fill="black" x="119.5" y="39" style="text-anchor: middle; alignment-baseline: central;">JournalLibrary</text></g><rect width="139" height="38" style="stroke-width: 1; fill: none; stroke: black;" x="50" y="306"></rect><g><text fill="black" x="119.5" y="325" style="text-anchor: middle; alignment-baseline: central;">JournalLibrary</text></g><path d="M119.5,58 v248" style="stroke-width: 1; fill: none; stroke: black;"></path><rect width="54" height="38" style="stroke-width: 1; fill: none; stroke: black;" x="268.5" y="20"></rect><g><text fill="black" x="295.5" y="39" style="text-anchor: middle; alignment-baseline: central;">User</text></g><rect width="54" height="38" style="stroke-width: 1; fill: none; stroke: black;" x="268.5" y="306"></rect><g><text fill="black" x="295.5" y="325" style="text-anchor: middle; alignment-baseline: central;">User</text></g><path d="M295.5,58 v248" style="stroke-width: 1; fill: none; stroke: black;"></path><rect width="37" height="38" style="stroke-width: 1; fill: none; stroke: black;" x="407.5" y="20"></rect><g><text fill="black" x="426" y="39" style="text-anchor: middle; alignment-baseline: central;">UI</text></g><rect width="37" height="38" style="stroke-width: 1; fill: none; stroke: black;" x="407.5" y="306"></rect><g><text fill="black" x="426" y="325" style="text-anchor: middle; alignment-baseline: central;">UI</text></g><path d="M426,58 v248" style="stroke-width: 1; fill: none; stroke: black;"></path><g><text fill="black" x="69.75" y="83" style="text-anchor: middle; alignment-baseline: central;">create()</text></g><path d="M20,96 h99.5" style="stroke-width: 1; fill: none; stroke: black;" marker-end="url(#arrow-filled)"></path><g><text fill="black" x="212.5" y="125" style="text-anchor: middle; alignment-baseline: central;">checkDalyEntry()</text></g><path d="M119.5,111 C159.5,111 159.5,144 119.5,144" style="stroke-width: 1; fill: none; stroke: black;" marker-end="url(#arrow-filled)"></path><g><text fill="black" x="165.75" y="163" style="text-anchor: middle; alignment-baseline: central;">false</text></g><path d="M119.5,149 C159.5,149 159.5,182 119.5,182" style="stroke-width: 1; fill: none; stroke: black;" stroke-dasharray="7,4" marker-end="url(#arrow-filled)"></path><g><text fill="black" x="207.5" y="197" style="text-anchor: middle; alignment-baseline: central;">noDaylieEntryEvent</text></g><path d="M119.5,210 h176" style="stroke-width: 1; fill: none; stroke: black;" stroke-dasharray="7,4" marker-end="url(#arrow-filled)"></path><g><text fill="black" x="360.75" y="235" style="text-anchor: middle; alignment-baseline: central;">showMessage()</text></g><path d="M295.5,248 h130.5" style="stroke-width: 1; fill: none; stroke: black;" marker-end="url(#arrow-filled)"></path><g><text fill="black" x="360.75" y="273" style="text-anchor: middle; alignment-baseline: central;"></text></g><path d="M426,286 h-130.5" style="stroke-width: 1; fill: none; stroke: black;" stroke-dasharray="7,4" marker-end="url(#arrow-filled)"></path></svg>