<?xml version="1.0" encoding="UTF-8" standalone="no"?>
<!DOCTYPE svg PUBLIC "-//W3C//DTD SVG 1.1//EN"
 "http://www.w3.org/Graphics/SVG/1.1/DTD/svg11.dtd">
<!-- Generated by graphviz version 2.38.0 (20140413.2041)
 -->
<!-- Title: G Pages: 1 -->
<svg width="745pt" height="133pt"
 viewBox="0.00 0.00 744.84 133.00" xmlns="http://www.w3.org/2000/svg" xmlns:xlink="http://www.w3.org/1999/xlink">
<g id="graph0" class="graph" transform="scale(1 1) rotate(0) translate(4 129)">
<title>G</title>
<polygon fill="white" stroke="none" points="-4,4 -4,-129 740.844,-129 740.844,4 -4,4"/>
<!-- A0 -->
<g id="node1" class="node"><title>A0</title>
<polygon fill="none" stroke="black" points="2.84217e-14,-27.5 2.84217e-14,-63.5 59.123,-63.5 59.123,-27.5 2.84217e-14,-27.5"/>
<text text-anchor="middle" x="29.5615" y="-42.5" font-family="Helvetica,sans-Serif" font-size="10.00">Patient</text>
</g>
<!-- A1 -->
<g id="node2" class="node"><title>A1</title>
<polygon fill="none" stroke="black" points="109.123,-27.5 109.123,-63.5 191.573,-63.5 191.573,-27.5 109.123,-27.5"/>
<text text-anchor="middle" x="150.348" y="-42.5" font-family="Helvetica,sans-Serif" font-size="10.00">LevelLibrary</text>
</g>
<!-- A0&#45;&gt;A1 -->
<g id="edge1" class="edge"><title>A0&#45;&gt;A1</title>
<path fill="none" stroke="black" d="M71.3912,-45.5C80.164,-45.5 89.5375,-45.5 98.6335,-45.5"/>
<polygon fill="black" stroke="black" points="71.3164,-45.5001 65.3164,-49.5 59.3164,-45.5 65.3164,-41.5 71.3164,-45.5001"/>
<polygon fill="black" stroke="black" points="108.738,-45.5 98.7385,-50.0001 103.738,-45.5 98.7384,-45.5001 98.7384,-45.5001 98.7384,-45.5001 103.738,-45.5 98.7384,-41.0001 108.738,-45.5 108.738,-45.5"/>
<text text-anchor="middle" x="90.6123" y="-50.9524" font-family="Helvetica,sans-Serif" font-size="10.00">1</text>
<text text-anchor="middle" x="77.4426" y="-34.0476" font-family="Helvetica,sans-Serif" font-size="10.00">1</text>
</g>
<!-- A2 -->
<g id="node3" class="node"><title>A2</title>
<polygon fill="none" stroke="black" points="241.573,-27.5 241.573,-63.5 295.573,-63.5 295.573,-27.5 241.573,-27.5"/>
<text text-anchor="middle" x="268.573" y="-42.5" font-family="Helvetica,sans-Serif" font-size="10.00">Level</text>
</g>
<!-- A1&#45;&gt;A2 -->
<g id="edge2" class="edge"><title>A1&#45;&gt;A2</title>
<path fill="none" stroke="black" d="M191.672,-45.5C204.58,-45.5 218.783,-45.5 231.378,-45.5"/>
<polygon fill="black" stroke="black" points="241.515,-45.5 231.515,-50.0001 236.515,-45.5 231.515,-45.5001 231.515,-45.5001 231.515,-45.5001 236.515,-45.5 231.515,-41.0001 241.515,-45.5 241.515,-45.5"/>
<text text-anchor="middle" x="223.389" y="-50.9524" font-family="Helvetica,sans-Serif" font-size="10.00">*</text>
<text text-anchor="middle" x="209.798" y="-34.0476" font-family="Helvetica,sans-Serif" font-size="10.00">1</text>
</g>
<!-- A3 -->
<g id="node4" class="node"><title>A3</title>
<polygon fill="none" stroke="black" points="345.573,-51.5 345.573,-87.5 418.584,-87.5 418.584,-51.5 345.573,-51.5"/>
<text text-anchor="middle" x="382.079" y="-66.5" font-family="Helvetica,sans-Serif" font-size="10.00">Challenge</text>
</g>
<!-- A2&#45;&gt;A3 -->
<g id="edge3" class="edge"><title>A2&#45;&gt;A3</title>
<path fill="none" stroke="black" d="M295.716,-51.1269C307.514,-53.6663 321.804,-56.742 335.29,-59.6446"/>
<polygon fill="black" stroke="black" points="345.391,-61.8188 334.668,-64.1138 340.503,-60.7667 335.615,-59.7146 335.615,-59.7146 335.615,-59.7146 340.503,-60.7667 336.562,-55.3153 345.391,-61.8188 345.391,-61.8188"/>
<text text-anchor="middle" x="325.892" y="-63.2679" font-family="Helvetica,sans-Serif" font-size="10.00">*</text>
<text text-anchor="middle" x="315.215" y="-43.6779" font-family="Helvetica,sans-Serif" font-size="10.00">1</text>
</g>
<!-- A2JA4 -->
<!-- A2&#45;&gt;A2JA4 -->
<g id="edge4" class="edge"><title>A2&#45;&gt;A2JA4</title>
<path fill="none" stroke="black" stroke-dasharray="5,2" d="M295.654,-43.2106C360.891,-37.4839 526.308,-22.9632 531.462,-22.5108"/>
<text text-anchor="middle" x="312.971" y="-30.2055" font-family="Helvetica,sans-Serif" font-size="10.00">implements</text>
</g>
<!-- A3JA6 -->
<!-- A3&#45;&gt;A3JA6 -->
<g id="edge7" class="edge"><title>A3&#45;&gt;A3JA6</title>
<path fill="none" stroke="black" stroke-dasharray="5,2" d="M418.65,-69.5C461.897,-69.5 529.435,-69.5 531.535,-69.5"/>
<text text-anchor="middle" x="436.776" y="-58.0476" font-family="Helvetica,sans-Serif" font-size="10.00">implements</text>
</g>
<!-- A4 -->
<g id="node5" class="node"><title>A4</title>
<polygon fill="none" stroke="black" points="646.586,-0.5 646.586,-36.5 736.844,-36.5 736.844,-0.5 646.586,-0.5"/>
<text text-anchor="middle" x="691.715" y="-21.5" font-family="Helvetica,sans-Serif" font-size="10.00">&lt;&lt;Interface&gt;&gt;</text>
<text text-anchor="middle" x="691.715" y="-9.5" font-family="Helvetica,sans-Serif" font-size="10.00">Observer</text>
</g>
<!-- A5 -->
<g id="node6" class="node"><title>A5</title>
<polygon fill="none" stroke="black" points="468.584,-88.5 468.584,-124.5 596.586,-124.5 596.586,-88.5 468.584,-88.5"/>
<text text-anchor="middle" x="532.585" y="-109.5" font-family="Helvetica,sans-Serif" font-size="10.00">Note: Vom Framework</text>
<text text-anchor="middle" x="532.585" y="-97.5" font-family="Helvetica,sans-Serif" font-size="10.00">bereitgestellt</text>
</g>
<!-- A5&#45;&gt;A2JA4 -->
<g id="edge6" class="edge"><title>A5&#45;&gt;A2JA4</title>
<path fill="none" stroke="black" stroke-dasharray="5,2" d="M468.309,-98.429C454.746,-92.9744 444.253,-84.0429 443.584,-69.5 441.97,-34.3957 497.818,-25.4405 521.842,-23.2141"/>
<polygon fill="black" stroke="black" points="532.004,-22.5194 522.334,-27.691 527.015,-22.8604 522.027,-23.2015 522.027,-23.2015 522.027,-23.2015 527.015,-22.8604 521.72,-18.712 532.004,-22.5194 532.004,-22.5194"/>
</g>
<!-- A5&#45;&gt;A3JA6 -->
<g id="edge9" class="edge"><title>A5&#45;&gt;A3JA6</title>
<path fill="none" stroke="black" stroke-dasharray="5,2" d="M532.585,-88.2891C532.585,-85.6333 532.585,-82.9775 532.585,-80.3218"/>
<polygon fill="black" stroke="black" points="532.585,-70.0781 537.085,-80.0781 532.585,-75.0781 532.585,-80.0781 532.585,-80.0781 532.585,-80.0781 532.585,-75.0781 528.085,-80.0782 532.585,-70.0781 532.585,-70.0781"/>
</g>
<!-- A2JA4&#45;&gt;A4 -->
<g id="edge5" class="edge"><title>A2JA4&#45;&gt;A4</title>
<path fill="none" stroke="black" stroke-dasharray="5,2" d="M533.699,-22.4971C536.544,-22.4247 592.128,-21.0097 636.362,-19.8836"/>
<polygon fill="black" stroke="black" points="646.462,-19.6265 636.58,-24.3797 641.464,-19.7538 636.465,-19.8811 636.465,-19.8811 636.465,-19.8811 641.464,-19.7538 636.351,-15.3826 646.462,-19.6265 646.462,-19.6265"/>
</g>
<!-- A6 -->
<g id="node8" class="node"><title>A6</title>
<polygon fill="none" stroke="black" points="646.586,-55.5 646.586,-91.5 736.844,-91.5 736.844,-55.5 646.586,-55.5"/>
<text text-anchor="middle" x="691.715" y="-76.5" font-family="Helvetica,sans-Serif" font-size="10.00">&lt;&lt;Interface&gt;&gt;</text>
<text text-anchor="middle" x="691.715" y="-64.5" font-family="Helvetica,sans-Serif" font-size="10.00">Observable</text>
</g>
<!-- A3JA6&#45;&gt;A6 -->
<g id="edge8" class="edge"><title>A3JA6&#45;&gt;A6</title>
<path fill="none" stroke="black" stroke-dasharray="5,2" d="M533.699,-69.5029C536.544,-69.5753 592.128,-70.9903 636.362,-72.1164"/>
<polygon fill="black" stroke="black" points="646.462,-72.3735 636.351,-76.6174 641.464,-72.2462 636.465,-72.1189 636.465,-72.1189 636.465,-72.1189 641.464,-72.2462 636.58,-67.6203 646.462,-72.3735 646.462,-72.3735"/>
</g>
</g>
</svg>
