<?xml version="1.0" encoding="UTF-8" standalone="no"?>
<!DOCTYPE svg PUBLIC "-//W3C//DTD SVG 1.1//EN"
 "http://www.w3.org/Graphics/SVG/1.1/DTD/svg11.dtd">
<!-- Generated by graphviz version 2.38.0 (20140413.2041)
 -->
<!-- Title: G Pages: 1 -->
<svg width="184pt" height="132pt"
 viewBox="0.00 0.00 183.84 132.00" xmlns="http://www.w3.org/2000/svg" xmlns:xlink="http://www.w3.org/1999/xlink">
<g id="graph0" class="graph" transform="scale(1 1) rotate(0) translate(4 128)">
<title>G</title>
<polygon fill="white" stroke="none" points="-4,4 -4,-128 179.835,-128 179.835,4 -4,4"/>
<!-- A0 -->
<g id="node1" class="node"><title>A0</title>
<polygon fill="none" stroke="black" points="32.1515,-87.5 32.1515,-123.5 139.619,-123.5 139.619,-87.5 32.1515,-87.5"/>
<text text-anchor="middle" x="85.885" y="-102.5" font-family="Helvetica,sans-Serif" font-size="10.00">DataLayerFacade</text>
</g>
<!-- A1 -->
<g id="node2" class="node"><title>A1</title>
<polygon fill="none" stroke="black" points="0,-0.5 0,-36.5 75.77,-36.5 75.77,-0.5 0,-0.5"/>
<text text-anchor="middle" x="37.885" y="-15.5" font-family="Helvetica,sans-Serif" font-size="10.00">DataWriter</text>
</g>
<!-- A0&#45;&gt;A1 -->
<g id="edge1" class="edge"><title>A0&#45;&gt;A1</title>
<path fill="none" stroke="black" stroke-dasharray="5,2" d="M76.1715,-87.299C69.4052,-75.3169 60.2568,-59.1168 52.5995,-45.5569"/>
<polygon fill="black" stroke="black" points="47.5841,-36.6754 56.4197,-43.1702 50.0427,-41.0292 52.5013,-45.383 52.5013,-45.383 52.5013,-45.383 50.0427,-41.0292 48.5829,-47.5957 47.5841,-36.6754 47.5841,-36.6754"/>
<text text-anchor="middle" x="59.8986" y="-72.6718" font-family="Helvetica,sans-Serif" font-size="10.00">uses</text>
</g>
<!-- A2 -->
<g id="node3" class="node"><title>A2</title>
<polygon fill="none" stroke="black" points="93.935,-0.5 93.935,-36.5 175.835,-36.5 175.835,-0.5 93.935,-0.5"/>
<text text-anchor="middle" x="134.885" y="-15.5" font-family="Helvetica,sans-Serif" font-size="10.00">DataReader</text>
</g>
<!-- A0&#45;&gt;A2 -->
<g id="edge2" class="edge"><title>A0&#45;&gt;A2</title>
<path fill="none" stroke="black" stroke-dasharray="5,2" d="M95.8009,-87.299C102.708,-75.3169 112.047,-59.1168 119.864,-45.5569"/>
<polygon fill="black" stroke="black" points="124.984,-36.6754 123.888,-47.5865 122.487,-41.0072 119.99,-45.339 119.99,-45.339 119.99,-45.339 122.487,-41.0072 116.091,-43.0916 124.984,-36.6754 124.984,-36.6754"/>
<text text-anchor="middle" x="97.5308" y="-64.3739" font-family="Helvetica,sans-Serif" font-size="10.00">uses</text>
</g>
</g>
</svg>
