<?xml version="1.0" encoding="UTF-8" standalone="no"?>
<!DOCTYPE svg PUBLIC "-//W3C//DTD SVG 1.1//EN"
 "http://www.w3.org/Graphics/SVG/1.1/DTD/svg11.dtd">
<!-- Generated by graphviz version 2.38.0 (20140413.2041)
 -->
<!-- Title: G Pages: 1 -->
<svg width="269pt" height="654pt"
 viewBox="0.00 0.00 268.80 654.00" xmlns="http://www.w3.org/2000/svg" xmlns:xlink="http://www.w3.org/1999/xlink">
<g id="graph0" class="graph" transform="scale(1 1) rotate(0) translate(4 650)">
<title>G</title>
<polygon fill="white" stroke="none" points="-4,4 -4,-650 264.798,-650 264.798,4 -4,4"/>
<!-- A0 -->
<g id="node1" class="node"><title>A0</title>
<polygon fill="none" stroke="black" points="53.654,-609.5 53.654,-645.5 141.684,-645.5 141.684,-609.5 53.654,-609.5"/>
<text text-anchor="middle" x="97.669" y="-630.5" font-family="Helvetica,sans-Serif" font-size="10.00">&lt;&lt;Abstract&gt;&gt;</text>
<text text-anchor="middle" x="97.669" y="-618.5" font-family="Helvetica,sans-Serif" font-size="10.00">User</text>
</g>
<!-- A1 -->
<g id="node2" class="node"><title>A1</title>
<polygon fill="none" stroke="black" points="68.1075,-435.5 68.1075,-471.5 127.23,-471.5 127.23,-435.5 68.1075,-435.5"/>
<text text-anchor="middle" x="97.669" y="-450.5" font-family="Helvetica,sans-Serif" font-size="10.00">Patient</text>
</g>
<!-- A0&#45;&gt;A1 -->
<g id="edge1" class="edge"><title>A0&#45;&gt;A1</title>
<path fill="none" stroke="black" d="M93.7016,-599.28C92.1036,-587.003 90.4545,-572.302 89.669,-559 88.6996,-542.584 88.6996,-538.416 89.669,-522 90.6847,-504.801 93.1439,-485.265 95.0698,-471.651"/>
<polygon fill="none" stroke="black" points="90.2551,-599.911 95.0698,-609.349 97.1914,-598.969 90.2551,-599.911"/>
</g>
<!-- A2 -->
<g id="node3" class="node"><title>A2</title>
<polygon fill="none" stroke="black" points="98.669,-522.5 98.669,-558.5 152.669,-558.5 152.669,-522.5 98.669,-522.5"/>
<text text-anchor="middle" x="125.557" y="-537.5" font-family="Helvetica,sans-Serif" font-size="10.00">Arzt</text>
</g>
<!-- A0&#45;&gt;A2 -->
<g id="edge2" class="edge"><title>A0&#45;&gt;A2</title>
<path fill="none" stroke="black" d="M106.521,-599.629C110.935,-586.229 116.142,-570.421 120.011,-558.675"/>
<polygon fill="none" stroke="black" points="103.14,-598.706 103.335,-609.299 109.788,-600.896 103.14,-598.706"/>
</g>
<!-- A3 -->
<g id="node4" class="node"><title>A3</title>
<polygon fill="none" stroke="black" points="-1.42109e-14,-348.5 -1.42109e-14,-384.5 91.338,-384.5 91.338,-348.5 -1.42109e-14,-348.5"/>
<text text-anchor="middle" x="45.669" y="-363.5" font-family="Helvetica,sans-Serif" font-size="10.00">JournalLibrary</text>
</g>
<!-- A1&#45;&gt;A3 -->
<g id="edge4" class="edge"><title>A1&#45;&gt;A3</title>
<path fill="none" stroke="black" d="M80.7462,-424.838C74.5509,-414.711 67.5692,-403.298 61.4752,-393.337"/>
<polygon fill="black" stroke="black" points="80.8837,-425.063 87.427,-428.093 87.146,-435.299 80.6027,-432.268 80.8837,-425.063"/>
<polygon fill="black" stroke="black" points="56.1763,-384.675 65.2336,-390.857 58.7856,-388.941 61.3949,-393.206 61.3949,-393.206 61.3949,-393.206 58.7856,-388.941 57.5563,-395.554 56.1763,-384.675 56.1763,-384.675"/>
<text text-anchor="middle" x="72.8457" y="-392.727" font-family="Helvetica,sans-Serif" font-size="10.00">1</text>
<text text-anchor="middle" x="70.4766" y="-421.248" font-family="Helvetica,sans-Serif" font-size="10.00">1</text>
</g>
<!-- A5 -->
<g id="node6" class="node"><title>A5</title>
<polygon fill="none" stroke="black" points="109.444,-348.5 109.444,-384.5 191.894,-384.5 191.894,-348.5 109.444,-348.5"/>
<text text-anchor="middle" x="150.669" y="-363.5" font-family="Helvetica,sans-Serif" font-size="10.00">LevelLibrary</text>
</g>
<!-- A1&#45;&gt;A5 -->
<g id="edge6" class="edge"><title>A1&#45;&gt;A5</title>
<path fill="none" stroke="black" d="M114.917,-424.838C121.232,-414.711 128.348,-403.298 134.559,-393.337"/>
<polygon fill="black" stroke="black" points="114.744,-425.116 114.963,-432.324 108.394,-435.299 108.175,-428.091 114.744,-425.116"/>
<polygon fill="black" stroke="black" points="139.96,-384.675 138.487,-395.542 137.314,-388.918 134.669,-393.161 134.669,-393.161 134.669,-393.161 137.314,-388.918 130.85,-390.78 139.96,-384.675 139.96,-384.675"/>
<text text-anchor="middle" x="137.541" y="-401.529" font-family="Helvetica,sans-Serif" font-size="10.00">1</text>
<text text-anchor="middle" x="110.813" y="-412.446" font-family="Helvetica,sans-Serif" font-size="10.00">1</text>
</g>
<!-- A2&#45;&gt;A1 -->
<g id="edge3" class="edge"><title>A2&#45;&gt;A1</title>
<path fill="none" stroke="black" d="M120.003,-522.299C116.132,-510.547 110.924,-494.738 106.511,-481.342"/>
<polygon fill="black" stroke="black" points="103.327,-471.675 110.73,-479.765 104.891,-476.424 106.456,-481.173 106.456,-481.173 106.456,-481.173 104.891,-476.424 102.182,-482.581 103.327,-471.675 103.327,-471.675"/>
<text text-anchor="middle" x="117.026" y="-483.247" font-family="Helvetica,sans-Serif" font-size="10.00">*</text>
<text text-anchor="middle" x="106.304" y="-504.727" font-family="Helvetica,sans-Serif" font-size="10.00">1</text>
</g>
<!-- A4 -->
<g id="node5" class="node"><title>A4</title>
<polygon fill="none" stroke="black" points="4.724,-261.5 4.724,-297.5 86.614,-297.5 86.614,-261.5 4.724,-261.5"/>
<text text-anchor="middle" x="45.669" y="-276.5" font-family="Helvetica,sans-Serif" font-size="10.00">LibraryEntry</text>
</g>
<!-- A3&#45;&gt;A4 -->
<g id="edge5" class="edge"><title>A3&#45;&gt;A4</title>
<path fill="none" stroke="black" d="M45.669,-348.299C45.669,-336.663 45.669,-321.048 45.669,-307.737"/>
<polygon fill="black" stroke="black" points="45.669,-297.675 50.1691,-307.675 45.669,-302.675 45.6691,-307.675 45.6691,-307.675 45.6691,-307.675 45.669,-302.675 41.1691,-307.675 45.669,-297.675 45.669,-297.675"/>
<text text-anchor="middle" x="54.1214" y="-312.802" font-family="Helvetica,sans-Serif" font-size="10.00">*</text>
<text text-anchor="middle" x="37.2166" y="-327.173" font-family="Helvetica,sans-Serif" font-size="10.00">1</text>
</g>
<!-- A6 -->
<g id="node7" class="node"><title>A6</title>
<polygon fill="none" stroke="black" points="123.669,-261.5 123.669,-297.5 177.669,-297.5 177.669,-261.5 123.669,-261.5"/>
<text text-anchor="middle" x="150.617" y="-276.5" font-family="Helvetica,sans-Serif" font-size="10.00">Level</text>
</g>
<!-- A5&#45;&gt;A6 -->
<g id="edge7" class="edge"><title>A5&#45;&gt;A6</title>
<path fill="none" stroke="black" d="M150.669,-348.299C150.669,-336.663 150.669,-321.048 150.669,-307.737"/>
<polygon fill="black" stroke="black" points="150.669,-297.675 155.169,-307.675 150.669,-302.675 150.669,-307.675 150.669,-307.675 150.669,-307.675 150.669,-302.675 146.169,-307.675 150.669,-297.675 150.669,-297.675"/>
<text text-anchor="middle" x="159.121" y="-312.802" font-family="Helvetica,sans-Serif" font-size="10.00">*</text>
<text text-anchor="middle" x="142.217" y="-327.173" font-family="Helvetica,sans-Serif" font-size="10.00">1</text>
</g>
<!-- A7 -->
<g id="node8" class="node"><title>A7</title>
<polygon fill="none" stroke="black" points="82.1635,-174.5 82.1635,-210.5 155.174,-210.5 155.174,-174.5 82.1635,-174.5"/>
<text text-anchor="middle" x="118.669" y="-189.5" font-family="Helvetica,sans-Serif" font-size="10.00">Challenge</text>
</g>
<!-- A6&#45;&gt;A7 -->
<g id="edge8" class="edge"><title>A6&#45;&gt;A7</title>
<path fill="none" stroke="black" d="M144.193,-261.299C139.769,-249.547 133.818,-233.738 128.774,-220.342"/>
<polygon fill="black" stroke="black" points="125.135,-210.675 132.87,-218.449 126.897,-215.355 128.658,-220.034 128.658,-220.034 128.658,-220.034 126.897,-215.355 124.447,-221.62 125.135,-210.675 125.135,-210.675"/>
<text text-anchor="middle" x="139.432" y="-221.661" font-family="Helvetica,sans-Serif" font-size="10.00">*</text>
<text text-anchor="middle" x="129.897" y="-244.313" font-family="Helvetica,sans-Serif" font-size="10.00">1</text>
</g>
<!-- A8 -->
<g id="node9" class="node"><title>A8</title>
<polygon fill="none" stroke="black" points="170.54,-87.5 170.54,-123.5 260.798,-123.5 260.798,-87.5 170.54,-87.5"/>
<text text-anchor="middle" x="215.669" y="-108.5" font-family="Helvetica,sans-Serif" font-size="10.00">&lt;&lt;Interface&gt;&gt;</text>
<text text-anchor="middle" x="215.669" y="-96.5" font-family="Helvetica,sans-Serif" font-size="10.00">Observer</text>
</g>
<!-- A6&#45;&gt;A8 -->
<g id="edge9" class="edge"><title>A6&#45;&gt;A8</title>
<path fill="none" stroke="black" stroke-dasharray="5,2" d="M157.139,-261.379C168.479,-231.372 192.02,-169.079 205.537,-133.312"/>
<polygon fill="black" stroke="black" points="209.225,-123.552 209.899,-134.497 207.458,-128.229 205.69,-132.906 205.69,-132.906 205.69,-132.906 207.458,-128.229 201.481,-131.315 209.225,-123.552 209.225,-123.552"/>
<text text-anchor="middle" x="155.64" y="-238.435" font-family="Helvetica,sans-Serif" font-size="10.00">implements</text>
</g>
<!-- A10 -->
<g id="node11" class="node"><title>A10</title>
<polygon fill="none" stroke="black" points="62.54,-87.5 62.54,-123.5 152.798,-123.5 152.798,-87.5 62.54,-87.5"/>
<text text-anchor="middle" x="107.669" y="-108.5" font-family="Helvetica,sans-Serif" font-size="10.00">&lt;&lt;Interface&gt;&gt;</text>
<text text-anchor="middle" x="107.669" y="-96.5" font-family="Helvetica,sans-Serif" font-size="10.00">Subject</text>
</g>
<!-- A7&#45;&gt;A10 -->
<g id="edge11" class="edge"><title>A7&#45;&gt;A10</title>
<path fill="none" stroke="black" stroke-dasharray="5,2" d="M116.443,-174.299C114.937,-162.663 112.916,-147.048 111.194,-133.737"/>
<polygon fill="black" stroke="black" points="109.892,-123.675 115.638,-133.015 110.533,-128.634 111.175,-133.593 111.175,-133.593 111.175,-133.593 110.533,-128.634 106.712,-134.17 109.892,-123.675 109.892,-123.675"/>
<text text-anchor="middle" x="105.734" y="-154.408" font-family="Helvetica,sans-Serif" font-size="10.00">implements</text>
</g>
<!-- A9 -->
<g id="node10" class="node"><title>A9</title>
<polygon fill="none" stroke="black" points="97.668,-0.5 97.668,-36.5 225.67,-36.5 225.67,-0.5 97.668,-0.5"/>
<text text-anchor="middle" x="161.669" y="-21.5" font-family="Helvetica,sans-Serif" font-size="10.00">Note: Vom Framework</text>
<text text-anchor="middle" x="161.669" y="-9.5" font-family="Helvetica,sans-Serif" font-size="10.00">bereitgestellt</text>
</g>
<!-- A8&#45;&gt;A9 -->
<g id="edge10" class="edge"><title>A8&#45;&gt;A9</title>
<path fill="none" stroke="black" d="M204.741,-87.299C195.373,-72.5519 181.945,-51.4152 172.58,-36.6754"/>
</g>
<!-- A10&#45;&gt;A9 -->
<g id="edge12" class="edge"><title>A10&#45;&gt;A9</title>
<path fill="none" stroke="black" d="M118.597,-87.299C127.965,-72.5519 141.393,-51.4152 150.758,-36.6754"/>
</g>
<!-- A11 -->
<g id="node12" class="node"><title>A11</title>
<polygon fill="none" stroke="black" points="159.669,-609.5 159.669,-645.5 213.669,-645.5 213.669,-609.5 159.669,-609.5"/>
<text text-anchor="middle" x="186.668" y="-624.5" font-family="Helvetica,sans-Serif" font-size="10.00">UI</text>
</g>
</g>
</svg>
