<?xml version="1.0" encoding="UTF-8" standalone="no"?>
<!DOCTYPE svg PUBLIC "-//W3C//DTD SVG 1.1//EN"
 "http://www.w3.org/Graphics/SVG/1.1/DTD/svg11.dtd">
<!-- Generated by graphviz version 2.38.0 (20140413.2041)
 -->
<!-- Title: G Pages: 1 -->
<svg width="309pt" height="68pt"
 viewBox="0.00 0.00 309.15 68.00" xmlns="http://www.w3.org/2000/svg" xmlns:xlink="http://www.w3.org/1999/xlink">
<g id="graph0" class="graph" transform="scale(1 1) rotate(0) translate(4 64)">
<title>G</title>
<polygon fill="white" stroke="none" points="-4,4 -4,-64 305.153,-64 305.153,4 -4,4"/>
<!-- A0 -->
<g id="node1" class="node"><title>A0</title>
<polygon fill="none" stroke="black" points="-1.42109e-14,-23.5 -1.42109e-14,-59.5 88.03,-59.5 88.03,-23.5 -1.42109e-14,-23.5"/>
<text text-anchor="middle" x="44.015" y="-44.5" font-family="Helvetica,sans-Serif" font-size="10.00">&lt;&lt;Abstract&gt;&gt;</text>
<text text-anchor="middle" x="44.015" y="-32.5" font-family="Helvetica,sans-Serif" font-size="10.00">User</text>
</g>
<!-- A1 -->
<g id="node2" class="node"><title>A1</title>
<polygon fill="none" stroke="black" points="242.03,-23.5 242.03,-59.5 301.153,-59.5 301.153,-23.5 242.03,-23.5"/>
<text text-anchor="middle" x="271.591" y="-38.5" font-family="Helvetica,sans-Serif" font-size="10.00">Patient</text>
</g>
<!-- A0&#45;&gt;A1 -->
<g id="edge1" class="edge"><title>A0&#45;&gt;A1</title>
<path fill="none" stroke="black" d="M98.4481,-45.0074C126.337,-46.4101 161.022,-47.4858 192.03,-46.5 208.558,-45.9746 227.013,-44.8288 241.881,-43.7665"/>
<polygon fill="none" stroke="black" points="98.2857,-41.4939 88.1138,-44.4574 97.9137,-48.484 98.2857,-41.4939"/>
</g>
<!-- A2 -->
<g id="node3" class="node"><title>A2</title>
<polygon fill="none" stroke="black" points="138.03,-0.5 138.03,-36.5 192.03,-36.5 192.03,-0.5 138.03,-0.5"/>
<text text-anchor="middle" x="165.03" y="-15.5" font-family="Helvetica,sans-Serif" font-size="10.00">Arzt</text>
</g>
<!-- A0&#45;&gt;A2 -->
<g id="edge2" class="edge"><title>A0&#45;&gt;A2</title>
<path fill="none" stroke="black" d="M98.2207,-31.2178C111.988,-28.5572 126.211,-25.8086 137.897,-23.5503"/>
<polygon fill="none" stroke="black" points="97.473,-27.7975 88.3188,-33.1314 98.8013,-34.6703 97.473,-27.7975"/>
</g>
<!-- A2&#45;&gt;A1 -->
<g id="edge3" class="edge"><title>A2&#45;&gt;A1</title>
<path fill="none" stroke="black" d="M192.146,-24.2445C204.196,-26.8953 218.746,-30.0956 232.025,-33.0166"/>
<polygon fill="black" stroke="black" points="241.869,-35.1821 231.136,-37.4287 236.986,-34.1079 232.103,-33.0337 232.103,-33.0337 232.103,-33.0337 236.986,-34.1079 233.07,-28.6388 241.869,-35.1821 241.869,-35.1821"/>
<text text-anchor="middle" x="222.351" y="-36.5431" font-family="Helvetica,sans-Serif" font-size="10.00">*</text>
<text text-anchor="middle" x="211.664" y="-16.8836" font-family="Helvetica,sans-Serif" font-size="10.00">1</text>
</g>
</g>
</svg>
